<?xml version="1.0" encoding="utf-8"?>
<!-- Generator: Adobe Illustrator 18.0.0, SVG Export Plug-In . SVG Version: 6.00 Build 0)  -->
<!DOCTYPE svg PUBLIC "-//W3C//DTD SVG 1.1//EN" "http://www.w3.org/Graphics/SVG/1.1/DTD/svg11.dtd">
<svg version="1.1" id="Calque_1" xmlns="http://www.w3.org/2000/svg" xmlns:xlink="http://www.w3.org/1999/xlink" x="0px" y="0px"
	 viewBox="0 0 546 362" enable-background="new 0 0 546 362" xml:space="preserve">
<g>
	<path fill="none" stroke="#000000" stroke-miterlimit="10" d="M271,317.1c-74.5,0-135.2-60.6-135.2-135.2
		c0-74.5,60.6-135.2,135.2-135.2c74.5,0,135.2,60.6,135.2,135.2C406.2,256.5,345.5,317.1,271,317.1z"/>
	<path fill="none" stroke="#000000" stroke-width="0.5" stroke-miterlimit="10" d="M271,303.8c-67.2,0-121.9-54.7-121.9-121.9
		S203.7,60,271,60s121.9,54.7,121.9,121.9C392.9,249.2,338.2,303.8,271,303.8z"/>
	<path fill="none" stroke="#000000" stroke-width="0.5" stroke-miterlimit="10" d="M271,290.6c-59.9,0-108.7-48.7-108.7-108.7
		c0-59.9,48.7-108.7,108.7-108.7c59.9,0,108.7,48.7,108.7,108.7C379.6,241.8,330.9,290.6,271,290.6z"/>
	<path fill="none" stroke="#000000" stroke-width="0.5" stroke-miterlimit="10" d="M271,277.3c-52.6,0-95.4-42.8-95.4-95.4
		c0-52.6,42.8-95.4,95.4-95.4s95.4,42.8,95.4,95.4C366.4,234.5,323.6,277.3,271,277.3z"/>
	<path fill="none" stroke="#000000" stroke-width="0.5" stroke-miterlimit="10" d="M271,264.1c-45.3,0-82.2-36.8-82.2-82.2
		c0-45.3,36.8-82.2,82.2-82.2c45.3,0,82.2,36.8,82.2,82.2S316.3,264.1,271,264.1z"/>
	<path fill="none" stroke="#000000" stroke-width="0.5" stroke-miterlimit="10" d="M271,250.8c-38,0-68.9-30.9-68.9-68.9
		S233,113,271,113c38,0,68.9,30.9,68.9,68.9C339.9,219.9,309,250.8,271,250.8z"/>
	<path fill="none" stroke="#000000" stroke-width="0.5" stroke-miterlimit="10" d="M271,237.6c-30.7,0-55.6-24.9-55.6-55.6
		c0-30.7,24.9-55.6,55.6-55.6s55.6,24.9,55.6,55.6C326.6,212.6,301.7,237.6,271,237.6z"/>
	<path fill="none" stroke="#000000" stroke-width="0.5" stroke-miterlimit="10" d="M271,224.3c-23.4,0-42.4-19-42.4-42.4
		c0-23.4,19-42.4,42.4-42.4c23.4,0,42.4,19,42.4,42.4C313.4,205.3,294.4,224.3,271,224.3z"/>
	<path fill="none" stroke="#000000" stroke-width="0.5" stroke-miterlimit="10" d="M271,211c-16.1,0-29.1-13-29.1-29.1
		c0-16.1,13.1-29.1,29.1-29.1c16.1,0,29.1,13,29.1,29.1C300.1,198,287,211,271,211z"/>
	<circle fill="#999999" cx="271" cy="181.9" r="15.9"/>
	<line fill="none" stroke="#6D6D6D" stroke-miterlimit="10" x1="271" y1="32.9" x2="271" y2="329.6"/>
	<line fill="none" stroke="#6D6D6D" stroke-miterlimit="10" x1="375.2" y1="78.2" x2="165.3" y2="288.1"/>
	<line fill="none" stroke="#6D6D6D" stroke-miterlimit="10" x1="416.5" y1="181.9" x2="119.7" y2="181.9"/>
	<line fill="none" stroke="#6D6D6D" stroke-miterlimit="10" x1="374.1" y1="285" x2="164.3" y2="75.2"/>
	<g>
		<path fill="#949494" d="M234,17.4c0.7,0.6,1,1.5,1,2.6s-0.3,2-1,2.6c-0.7,0.6-1.7,1-3.1,1h-2.4v-7.2h2.5
			C232.3,16.5,233.3,16.8,234,17.4z M233.8,20.1c0-1.6-0.9-2.5-2.8-2.5h-1.2v4.9h1.3c0.9,0,1.5-0.2,2-0.6
			C233.6,21.5,233.8,20.9,233.8,20.1z"/>
		<path fill="#949494" d="M241.5,21.5h-4.3c0,0.4,0.2,0.7,0.5,1c0.3,0.2,0.7,0.4,1.1,0.4c0.7,0,1.2-0.2,1.6-0.6l0.7,0.7
			c-0.6,0.6-1.4,0.9-2.3,0.9c-0.8,0-1.4-0.3-2-0.8c-0.5-0.5-0.8-1.2-0.8-2.1c0-0.9,0.3-1.5,0.8-2s1.2-0.8,1.9-0.8
			c0.7,0,1.4,0.2,1.9,0.7s0.8,1.1,0.8,1.9L241.5,21.5L241.5,21.5z M237.2,20.5h3.1c0-0.5-0.1-0.8-0.4-1.1c-0.3-0.2-0.6-0.4-1.1-0.4
			s-0.8,0.1-1.1,0.4S237.2,20.1,237.2,20.5z"/>
		<path fill="#949494" d="M243.9,23.7h-1.1v-7.6h1.1V23.7z"/>
		<path fill="#949494" d="M250,23.7h-1V23c-0.5,0.5-1.1,0.8-1.8,0.8c-0.6,0-1-0.2-1.4-0.5c-0.4-0.3-0.6-0.8-0.6-1.3s0.2-0.9,0.6-1.2
			c0.4-0.3,0.9-0.4,1.6-0.4h1.5v-0.2c0-0.7-0.4-1.1-1.2-1.1c-0.5,0-1,0.2-1.6,0.6l-0.5-0.7c0.7-0.5,1.4-0.8,2.3-0.8
			c0.6,0,1.2,0.2,1.6,0.5c0.4,0.3,0.6,0.8,0.6,1.5V23.7z M248.8,21.6v-0.5h-1.3c-0.8,0-1.2,0.3-1.2,0.8c0,0.3,0.1,0.5,0.3,0.6
			s0.5,0.2,0.9,0.2s0.7-0.1,1-0.3S248.8,22,248.8,21.6z"/>
		<path fill="#949494" d="M251.7,17.1c-0.1-0.1-0.2-0.3-0.2-0.5c0-0.2,0.1-0.4,0.2-0.5c0.1-0.1,0.3-0.2,0.5-0.2
			c0.2,0,0.4,0.1,0.5,0.2c0.1,0.1,0.2,0.3,0.2,0.5c0,0.2-0.1,0.4-0.2,0.5s-0.3,0.2-0.5,0.2C252,17.3,251.8,17.3,251.7,17.1z
			 M252.7,23.7h-1.1v-5.5h1.1V23.7z"/>
		<path fill="#949494" d="M257.6,23c-0.5-0.5-0.8-1.2-0.8-2.1c0-0.8,0.3-1.5,0.8-2s1.2-0.8,1.9-0.8s1.3,0.3,1.8,0.9v-3h1.1v7.6h-1.1
			v-0.8c-0.4,0.6-1,0.9-1.9,0.9C258.7,23.8,258.1,23.5,257.6,23z M258,21c0,0.5,0.2,0.9,0.5,1.3c0.3,0.3,0.7,0.5,1.2,0.5
			c0.5,0,0.8-0.2,1.1-0.5c0.3-0.3,0.5-0.8,0.5-1.3c0-0.5-0.2-1-0.5-1.3c-0.3-0.3-0.7-0.5-1.2-0.5c-0.5,0-0.9,0.2-1.2,0.5
			C258.2,20,258,20.5,258,21z"/>
		<path fill="#949494" d="M269.2,21.5h-4.3c0,0.4,0.2,0.7,0.5,1c0.3,0.2,0.7,0.4,1.1,0.4c0.7,0,1.2-0.2,1.6-0.6l0.7,0.7
			c-0.6,0.6-1.4,0.9-2.3,0.9c-0.8,0-1.4-0.3-2-0.8c-0.5-0.5-0.8-1.2-0.8-2.1c0-0.9,0.3-1.5,0.8-2s1.2-0.8,1.9-0.8
			c0.7,0,1.4,0.2,1.9,0.7c0.5,0.4,0.8,1.1,0.8,1.9L269.2,21.5L269.2,21.5z M264.9,20.5h3.1c0-0.5-0.1-0.8-0.4-1.1
			c-0.3-0.2-0.6-0.4-1.1-0.4s-0.8,0.1-1.1,0.4S264.9,20.1,264.9,20.5z"/>
		<path fill="#949494" d="M274.4,23.7h-1.1v-7.6h1.1V23.7z"/>
		<path fill="#949494" d="M276.1,17.1c-0.1-0.1-0.2-0.3-0.2-0.5c0-0.2,0.1-0.4,0.2-0.5c0.1-0.1,0.3-0.2,0.5-0.2s0.4,0.1,0.5,0.2
			c0.1,0.1,0.2,0.3,0.2,0.5c0,0.2-0.1,0.4-0.2,0.5c-0.1,0.1-0.3,0.2-0.5,0.2C276.5,17.3,276.3,17.3,276.1,17.1z M277.2,23.7h-1.1
			v-5.5h1.1V23.7z"/>
		<path fill="#949494" d="M280.3,23.7l-2.2-5.5h1.2l1.7,4.1l1.7-4.1h1.2l-2.2,5.5H280.3z"/>
		<path fill="#949494" d="M287.6,19.3c-0.6,0-1,0.2-1.3,0.6c-0.3,0.4-0.4,0.9-0.4,1.5v2.3h-1.1v-5.5h1.1v1.1
			c0.2-0.3,0.4-0.6,0.8-0.8c0.3-0.2,0.7-0.3,1-0.3L287.6,19.3C287.7,19.3,287.6,19.3,287.6,19.3z"/>
		<path fill="#949494" d="M293.2,23.7h-1V23c-0.5,0.5-1.1,0.8-1.8,0.8c-0.6,0-1-0.2-1.4-0.5c-0.4-0.3-0.6-0.8-0.6-1.3
			s0.2-0.9,0.6-1.2c0.4-0.3,0.9-0.4,1.6-0.4h1.5v-0.2c0-0.7-0.4-1.1-1.2-1.1c-0.5,0-1,0.2-1.6,0.6l-0.5-0.7c0.7-0.5,1.4-0.8,2.3-0.8
			c0.6,0,1.2,0.2,1.6,0.5c0.4,0.3,0.6,0.8,0.6,1.5L293.2,23.7L293.2,23.7z M292,21.6v-0.5h-1.3c-0.8,0-1.2,0.3-1.2,0.8
			c0,0.3,0.1,0.5,0.3,0.6s0.5,0.2,0.9,0.2c0.4,0,0.7-0.1,1-0.3S292,22,292,21.6z"/>
		<path fill="#949494" d="M294.9,17.1c-0.1-0.1-0.2-0.3-0.2-0.5c0-0.2,0.1-0.4,0.2-0.5c0.1-0.1,0.3-0.2,0.5-0.2
			c0.2,0,0.4,0.1,0.5,0.2c0.1,0.1,0.2,0.3,0.2,0.5c0,0.2-0.1,0.4-0.2,0.5s-0.3,0.2-0.5,0.2S295,17.3,294.9,17.1z M295.9,23.7h-1.1
			v-5.5h1.1V23.7z"/>
		<path fill="#949494" d="M301.5,22c0,0.5-0.2,0.9-0.6,1.2c-0.4,0.3-0.9,0.5-1.4,0.5c-0.4,0-0.8-0.1-1.2-0.2s-0.8-0.3-1.1-0.6
			l0.6-0.9c0.6,0.5,1.3,0.7,1.8,0.7c0.3,0,0.5-0.1,0.6-0.2c0.1-0.1,0.2-0.3,0.2-0.5c0-0.3-0.4-0.5-1.1-0.7c-0.1,0-0.1,0-0.1,0
			c-1.1-0.3-1.7-0.8-1.7-1.5c0-0.5,0.2-0.9,0.6-1.2c0.4-0.3,0.9-0.5,1.5-0.5s1.2,0.2,1.8,0.6l-0.4,0.9c-0.4-0.3-0.9-0.4-1.4-0.4
			c-0.3,0-0.5,0-0.7,0.1s-0.3,0.2-0.3,0.4c0,0.2,0.1,0.3,0.3,0.4c0.1,0.1,0.3,0.1,0.5,0.2c0.2,0.1,0.4,0.1,0.6,0.2
			c0.2,0.1,0.3,0.1,0.5,0.2c0.2,0.1,0.3,0.2,0.5,0.3C301.3,21.1,301.5,21.5,301.5,22z"/>
		<path fill="#949494" d="M307.4,22.9c-0.5,0.5-1.2,0.8-2.1,0.8s-1.5-0.3-2.1-0.8s-0.8-1.2-0.8-2s0.3-1.5,0.8-2s1.2-0.8,2.1-0.8
			c0.8,0,1.5,0.3,2.1,0.8c0.5,0.5,0.8,1.2,0.8,2C308.2,21.7,307.9,22.4,307.4,22.9z M304.1,22.2c0.3,0.3,0.7,0.5,1.2,0.5
			c0.5,0,0.9-0.2,1.2-0.5c0.3-0.3,0.5-0.8,0.5-1.3c0-0.5-0.2-1-0.5-1.3c-0.3-0.3-0.7-0.5-1.2-0.5c-0.5,0-0.9,0.2-1.2,0.5
			c-0.3,0.3-0.5,0.8-0.5,1.3C303.6,21.5,303.8,21.9,304.1,22.2z"/>
		<path fill="#949494" d="M310.6,20.7v3h-1.1v-5.5h1.1v1c0.2-0.3,0.4-0.6,0.8-0.8c0.3-0.2,0.7-0.3,1.1-0.3c0.6,0,1.1,0.2,1.5,0.6
			c0.4,0.4,0.6,0.9,0.6,1.6v3.3h-1.1v-3c0-1-0.4-1.5-1.3-1.5c-0.4,0-0.7,0.1-1,0.4C310.8,19.8,310.6,20.2,310.6,20.7z"/>
	</g>
	<g>
		<path fill="#949494" d="M257.9,341.6c0.4,0,0.8-0.1,1.1-0.2c0.3-0.1,0.6-0.4,0.9-0.7l0.8,0.8c-0.8,0.8-1.7,1.3-2.8,1.3
			c-1.1,0-2-0.3-2.7-1c-0.7-0.7-1.1-1.6-1.1-2.6c0-1.1,0.4-2,1.1-2.7c0.7-0.7,1.6-1.1,2.8-1.1s2,0.4,2.8,1.2l-0.8,0.8
			c-0.3-0.3-0.7-0.6-1-0.7c-0.3-0.1-0.7-0.2-1.1-0.2c-0.7,0-1.3,0.2-1.8,0.7s-0.7,1.1-0.7,1.8s0.2,1.3,0.7,1.8
			C256.7,341.3,257.3,341.6,257.9,341.6z"/>
		<path fill="#949494" d="M264.9,338.3c-0.6,0-1,0.2-1.3,0.6c-0.3,0.4-0.4,0.9-0.4,1.5v2.3h-1.1v-5.5h1.1v1.1
			c0.2-0.3,0.4-0.6,0.8-0.8c0.3-0.2,0.7-0.3,1-0.3L264.9,338.3C265,338.3,264.9,338.3,264.9,338.3z"/>
		<path fill="#949494" d="M266.2,336.1c-0.1-0.1-0.2-0.3-0.2-0.5c0-0.2,0.1-0.4,0.2-0.5c0.1-0.1,0.3-0.2,0.5-0.2
			c0.2,0,0.4,0.1,0.5,0.2c0.1,0.1,0.2,0.3,0.2,0.5c0,0.2-0.1,0.4-0.2,0.5s-0.3,0.2-0.5,0.2C266.5,336.3,266.3,336.3,266.2,336.1z
			 M267.3,342.7h-1.1v-5.5h1.1V342.7z"/>
		<path fill="#949494" d="M270.4,338.1v2.8c0,0.3,0.1,0.5,0.2,0.6c0.1,0.2,0.3,0.2,0.6,0.2s0.5-0.1,0.7-0.4l0.5,0.8
			c-0.4,0.4-0.9,0.5-1.3,0.5s-0.9-0.2-1.3-0.5c-0.3-0.3-0.5-0.8-0.5-1.4v-2.7h-0.7v-0.9h0.7v-1.7h1.1v1.7h1.4v0.9H270.4z"/>
		<path fill="#949494" d="M278.3,340.4H274c0,0.4,0.2,0.7,0.5,1c0.3,0.2,0.7,0.4,1.1,0.4c0.7,0,1.2-0.2,1.6-0.6l0.7,0.7
			c-0.6,0.6-1.4,0.9-2.3,0.9c-0.8,0-1.4-0.3-2-0.8c-0.5-0.5-0.8-1.2-0.8-2.1s0.3-1.5,0.8-2s1.2-0.8,1.9-0.8s1.4,0.2,1.9,0.7
			c0.5,0.4,0.8,1.1,0.8,1.9V340.4z M274,339.5h3.1c0-0.5-0.1-0.8-0.4-1.1c-0.3-0.2-0.6-0.4-1.1-0.4c-0.4,0-0.8,0.1-1.1,0.4
			C274.2,338.7,274,339.1,274,339.5z M276.6,336.5h-1l-1.3-1l1.2-0.5L276.6,336.5z"/>
		<path fill="#949494" d="M282.4,338.3c-0.6,0-1,0.2-1.3,0.6c-0.3,0.4-0.4,0.9-0.4,1.5v2.3h-1.1v-5.5h1.1v1.1
			c0.2-0.3,0.4-0.6,0.8-0.8c0.3-0.2,0.7-0.3,1-0.3L282.4,338.3C282.5,338.3,282.5,338.3,282.4,338.3z"/>
		<path fill="#949494" d="M288.7,340.4h-4.3c0,0.4,0.2,0.7,0.5,1c0.3,0.2,0.7,0.4,1.1,0.4c0.7,0,1.2-0.2,1.6-0.6l0.7,0.7
			c-0.6,0.6-1.4,0.9-2.3,0.9c-0.8,0-1.4-0.3-2-0.8c-0.5-0.5-0.8-1.2-0.8-2.1s0.3-1.5,0.8-2c0.5-0.5,1.2-0.8,1.9-0.8
			c0.7,0,1.4,0.2,1.9,0.7c0.5,0.4,0.8,1.1,0.8,1.9V340.4z M284.5,339.5h3.1c0-0.5-0.1-0.8-0.4-1.1c-0.3-0.2-0.6-0.4-1.1-0.4
			s-0.8,0.1-1.1,0.4C284.6,338.7,284.5,339.1,284.5,339.5z"/>
	</g>
	<g>
		<path fill="#949494" d="M388.2,71.1c0.7,0.6,1,1.5,1,2.6s-0.3,2-1,2.6c-0.7,0.7-1.7,1-3.1,1h-2.4v-7.2h2.5
			C386.6,70.1,387.6,70.4,388.2,71.1z M388.1,73.7c0-1.6-0.9-2.5-2.8-2.5H384v4.9h1.3c0.9,0,1.5-0.2,2-0.6
			C387.8,75.1,388.1,74.5,388.1,73.7z"/>
		<path fill="#949494" d="M395.8,75.1h-4.3c0,0.4,0.2,0.7,0.5,1c0.3,0.2,0.7,0.4,1.1,0.4c0.7,0,1.2-0.2,1.6-0.6l0.7,0.7
			c-0.6,0.6-1.4,0.9-2.3,0.9c-0.8,0-1.4-0.3-2-0.8c-0.5-0.5-0.8-1.2-0.8-2.1c0-0.9,0.3-1.5,0.8-2c0.5-0.5,1.2-0.8,1.9-0.8
			s1.4,0.2,1.9,0.7c0.5,0.4,0.8,1.1,0.8,1.9V75.1z M391.5,74.2h3.1c0-0.5-0.1-0.8-0.4-1.1s-0.6-0.4-1.1-0.4s-0.8,0.1-1.1,0.4
			C391.6,73.4,391.5,73.7,391.5,74.2z"/>
		<path fill="#949494" d="M400.9,75.7c0,0.5-0.2,0.9-0.6,1.2s-0.9,0.5-1.4,0.5c-0.4,0-0.8-0.1-1.2-0.2c-0.4-0.1-0.8-0.3-1.1-0.6
			l0.6-0.9c0.6,0.5,1.3,0.7,1.8,0.7c0.3,0,0.5-0.1,0.6-0.2c0.1-0.1,0.2-0.3,0.2-0.5c0-0.3-0.4-0.5-1.1-0.7c-0.1,0-0.1,0-0.1,0
			c-1.1-0.3-1.7-0.8-1.7-1.5c0-0.5,0.2-0.9,0.6-1.2c0.4-0.3,0.9-0.5,1.5-0.5c0.6,0,1.2,0.2,1.8,0.6l-0.4,0.9
			c-0.4-0.3-0.9-0.4-1.4-0.4c-0.3,0-0.5,0.1-0.7,0.1c-0.2,0.1-0.3,0.2-0.3,0.4c0,0.2,0.1,0.3,0.3,0.4c0.1,0.1,0.3,0.1,0.5,0.2
			c0.2,0.1,0.4,0.1,0.6,0.2s0.3,0.1,0.5,0.2s0.3,0.2,0.5,0.3C400.7,74.8,400.9,75.1,400.9,75.7z"/>
		<path fill="#949494" d="M402.3,70.7c-0.1-0.1-0.2-0.3-0.2-0.5c0-0.2,0.1-0.4,0.2-0.5s0.3-0.2,0.5-0.2c0.2,0,0.4,0.1,0.5,0.2
			c0.1,0.1,0.2,0.3,0.2,0.5c0,0.2-0.1,0.4-0.2,0.5S403,71,402.8,71C402.6,71,402.4,70.9,402.3,70.7z M403.4,77.3h-1.1v-5.5h1.1V77.3
			z"/>
		<path fill="#949494" d="M410.1,71.8v4.8c0,1-0.3,1.7-0.8,2.2s-1.2,0.7-2,0.7s-1.6-0.3-2.2-0.8l0.5-0.9c0.5,0.4,1.1,0.6,1.6,0.6
			c0.5,0,1-0.1,1.3-0.4c0.3-0.3,0.5-0.7,0.5-1.3V76c-0.2,0.3-0.4,0.6-0.7,0.8c-0.3,0.2-0.7,0.3-1.1,0.3c-0.7,0-1.3-0.3-1.8-0.8
			c-0.5-0.5-0.7-1.1-0.7-1.9c0-0.8,0.2-1.4,0.7-1.9c0.5-0.5,1.1-0.8,1.8-0.8c0.7,0,1.3,0.3,1.8,0.9v-0.8L410.1,71.8L410.1,71.8z
			 M405.8,74.4c0,0.4,0.1,0.8,0.4,1.2c0.3,0.3,0.6,0.5,1.1,0.5c0.5,0,0.8-0.2,1.1-0.5c0.3-0.3,0.4-0.7,0.4-1.2s-0.1-0.9-0.4-1.2
			c-0.3-0.3-0.7-0.5-1.1-0.5c-0.5,0-0.8,0.2-1.1,0.5C406,73.5,405.8,73.9,405.8,74.4z"/>
		<path fill="#949494" d="M412.9,74.3v3h-1.1v-5.5h1.1v1c0.2-0.3,0.4-0.6,0.8-0.8c0.3-0.2,0.7-0.3,1.1-0.3c0.6,0,1.1,0.2,1.5,0.6
			s0.6,0.9,0.6,1.6v3.3h-1.1v-3c0-1-0.4-1.5-1.3-1.5c-0.4,0-0.7,0.1-1,0.4C413,73.4,412.9,73.8,412.9,74.3z"/>
		<path fill="#949494" d="M421.6,76.6c-0.5-0.5-0.8-1.2-0.8-2.1c0-0.8,0.3-1.5,0.8-2c0.5-0.5,1.2-0.8,1.9-0.8s1.3,0.3,1.8,0.9v-3
			h1.1v7.6h-1.1v-0.8c-0.4,0.6-1,0.9-1.9,0.9C422.7,77.4,422.1,77.1,421.6,76.6z M422,74.6c0,0.5,0.2,0.9,0.5,1.3
			c0.3,0.3,0.7,0.5,1.2,0.5s0.8-0.2,1.1-0.5c0.3-0.3,0.5-0.8,0.5-1.3c0-0.5-0.2-1-0.5-1.3c-0.3-0.3-0.7-0.5-1.2-0.5
			s-0.9,0.2-1.2,0.5C422.1,73.6,422,74.1,422,74.6z"/>
		<path fill="#949494" d="M431.9,74.8v-3h1.1v5.5h-1.1v-1c-0.2,0.3-0.4,0.6-0.8,0.8c-0.3,0.2-0.7,0.3-1.1,0.3
			c-0.6,0-1.1-0.2-1.5-0.6c-0.4-0.4-0.6-0.9-0.6-1.6v-3.3h1.1v3c0,1,0.4,1.5,1.3,1.5c0.4,0,0.7-0.1,1-0.4
			C431.7,75.7,431.9,75.3,431.9,74.8z"/>
		<path fill="#949494" d="M440.4,71.8c0.7,0,1.4,0.3,1.9,0.8c0.5,0.5,0.8,1.2,0.8,2c0,0.8-0.3,1.5-0.8,2.1s-1.1,0.8-1.8,0.8
			s-1.3-0.3-1.9-0.9v2.8h-1.1v-7.4h1.1v1C439.1,72.1,439.7,71.8,440.4,71.8z M438.6,74.6c0,0.5,0.2,0.9,0.5,1.3
			c0.3,0.3,0.7,0.5,1.1,0.5s0.8-0.2,1.2-0.5c0.3-0.3,0.5-0.8,0.5-1.3s-0.2-1-0.5-1.3c-0.3-0.3-0.7-0.5-1.2-0.5
			c-0.5,0-0.8,0.2-1.2,0.5C438.8,73.6,438.6,74.1,438.6,74.6z"/>
		<path fill="#949494" d="M447.3,72.9c-0.6,0-1,0.2-1.3,0.6c-0.3,0.4-0.4,0.9-0.4,1.5v2.3h-1.1v-5.5h1.1v1.1
			c0.2-0.3,0.4-0.6,0.8-0.8c0.3-0.2,0.7-0.3,1-0.3L447.3,72.9C447.3,72.9,447.3,72.9,447.3,72.9z"/>
		<path fill="#949494" d="M452.9,76.6c-0.5,0.5-1.2,0.8-2.1,0.8c-0.8,0-1.5-0.3-2.1-0.8c-0.5-0.5-0.8-1.2-0.8-2s0.3-1.5,0.8-2
			c0.5-0.5,1.2-0.8,2.1-0.8s1.5,0.3,2.1,0.8s0.8,1.2,0.8,2C453.8,75.4,453.5,76,452.9,76.6z M449.7,75.9c0.3,0.3,0.7,0.5,1.2,0.5
			c0.5,0,0.9-0.2,1.2-0.5c0.3-0.3,0.5-0.8,0.5-1.3c0-0.5-0.2-1-0.5-1.3c-0.3-0.3-0.7-0.5-1.2-0.5c-0.5,0-0.9,0.2-1.2,0.5
			c-0.3,0.3-0.5,0.8-0.5,1.3C449.2,75.1,449.3,75.5,449.7,75.9z"/>
		<path fill="#949494" d="M455.5,76.6c-0.5-0.5-0.8-1.2-0.8-2.1c0-0.8,0.3-1.5,0.8-2s1.2-0.8,1.9-0.8s1.3,0.3,1.8,0.9v-3h1.1v7.6
			h-1.1v-0.8c-0.4,0.6-1,0.9-1.9,0.9C456.6,77.4,456,77.1,455.5,76.6z M455.9,74.6c0,0.5,0.2,0.9,0.5,1.3c0.3,0.3,0.7,0.5,1.2,0.5
			s0.8-0.2,1.1-0.5c0.3-0.3,0.5-0.8,0.5-1.3c0-0.5-0.2-1-0.5-1.3c-0.3-0.3-0.7-0.5-1.2-0.5c-0.5,0-0.9,0.2-1.2,0.5
			C456,73.6,455.9,74.1,455.9,74.6z"/>
		<path fill="#949494" d="M465.8,74.8v-3h1.1v5.5h-1.1v-1c-0.2,0.3-0.4,0.6-0.8,0.8s-0.7,0.3-1.1,0.3c-0.6,0-1.1-0.2-1.5-0.6
			s-0.6-0.9-0.6-1.6v-3.3h1.1v3c0,1,0.4,1.5,1.3,1.5c0.4,0,0.7-0.1,1-0.4C465.6,75.7,465.8,75.3,465.8,74.8z"/>
		<path fill="#949494" d="M468.7,70.7c-0.1-0.1-0.2-0.3-0.2-0.5c0-0.2,0.1-0.4,0.2-0.5c0.1-0.1,0.3-0.2,0.5-0.2s0.4,0.1,0.5,0.2
			c0.1,0.1,0.2,0.3,0.2,0.5c0,0.2-0.1,0.4-0.2,0.5c-0.1,0.1-0.3,0.2-0.5,0.2C469,71,468.8,70.9,468.7,70.7z M469.7,77.3h-1.1v-5.5
			h1.1V77.3z"/>
		<path fill="#949494" d="M472.8,72.8v2.8c0,0.3,0.1,0.5,0.2,0.6s0.3,0.2,0.6,0.2s0.5-0.1,0.7-0.4l0.5,0.8c-0.4,0.4-0.9,0.5-1.3,0.5
			s-0.9-0.2-1.3-0.5c-0.3-0.3-0.5-0.8-0.5-1.4v-2.7H471v-0.9h0.7v-1.7h1.1v1.7h1.4v0.9H472.8z"/>
	</g>
	<g>
		<path fill="#949494" d="M129.4,76.2c0.4,0,0.8-0.1,1.1-0.2c0.3-0.1,0.6-0.4,0.9-0.7l0.8,0.8c-0.8,0.8-1.7,1.3-2.8,1.3
			s-2-0.3-2.7-1s-1.1-1.6-1.1-2.6s0.4-2,1.1-2.7s1.6-1.1,2.8-1.1s2,0.4,2.8,1.2l-0.8,0.8c-0.3-0.3-0.7-0.6-1-0.7
			c-0.3-0.1-0.7-0.2-1.1-0.2c-0.7,0-1.3,0.2-1.8,0.7c-0.5,0.5-0.7,1.1-0.7,1.8s0.2,1.3,0.7,1.8C128.1,76,128.7,76.2,129.4,76.2z"/>
		<path fill="#949494" d="M136.4,72.9c-0.6,0-1,0.2-1.3,0.6s-0.4,0.9-0.4,1.5v2.3h-1.1v-5.5h1.1v1.1c0.2-0.3,0.4-0.6,0.8-0.8
			c0.3-0.2,0.7-0.3,1-0.3L136.4,72.9C136.4,72.9,136.4,72.9,136.4,72.9z"/>
		<path fill="#949494" d="M137.6,70.7c-0.1-0.1-0.2-0.3-0.2-0.5c0-0.2,0.1-0.4,0.2-0.5c0.1-0.1,0.3-0.2,0.5-0.2
			c0.2,0,0.4,0.1,0.5,0.2c0.1,0.1,0.2,0.3,0.2,0.5c0,0.2-0.1,0.4-0.2,0.5s-0.3,0.2-0.5,0.2C137.9,71,137.8,70.9,137.6,70.7z
			 M138.7,77.3h-1.1v-5.5h1.1V77.3z"/>
		<path fill="#949494" d="M141.8,72.8v2.8c0,0.3,0.1,0.5,0.2,0.6c0.1,0.2,0.3,0.2,0.6,0.2s0.5-0.1,0.7-0.4l0.5,0.8
			c-0.4,0.4-0.9,0.5-1.3,0.5s-0.9-0.2-1.3-0.5c-0.3-0.3-0.5-0.8-0.5-1.4v-2.7H140v-0.9h0.7v-1.7h1.1v1.7h1.4v0.9H141.8z"/>
		<path fill="#949494" d="M149.7,75.1h-4.3c0,0.4,0.2,0.7,0.5,1c0.3,0.2,0.7,0.4,1.1,0.4c0.7,0,1.2-0.2,1.6-0.6l0.7,0.7
			c-0.6,0.6-1.4,0.9-2.3,0.9c-0.8,0-1.4-0.3-2-0.8c-0.5-0.5-0.8-1.2-0.8-2.1c0-0.9,0.3-1.5,0.8-2s1.2-0.8,1.9-0.8
			c0.7,0,1.4,0.2,1.9,0.7s0.8,1.1,0.8,1.9L149.7,75.1L149.7,75.1z M145.5,74.2h3.1c0-0.5-0.1-0.8-0.4-1.1s-0.6-0.4-1.1-0.4
			s-0.8,0.1-1.1,0.4C145.6,73.4,145.5,73.7,145.5,74.2z M148.1,71.1h-1l-1.3-1l1.2-0.5L148.1,71.1z"/>
		<path fill="#949494" d="M153.9,72.9c-0.6,0-1,0.2-1.3,0.6s-0.4,0.9-0.4,1.5v2.3H151v-5.5h1.1v1.1c0.2-0.3,0.4-0.6,0.8-0.8
			c0.3-0.2,0.7-0.3,1-0.3L153.9,72.9C153.9,72.9,153.9,72.9,153.9,72.9z"/>
		<path fill="#949494" d="M160.2,75.1h-4.3c0,0.4,0.2,0.7,0.5,1c0.3,0.2,0.7,0.4,1.1,0.4c0.7,0,1.2-0.2,1.6-0.6l0.7,0.7
			c-0.6,0.6-1.4,0.9-2.3,0.9c-0.8,0-1.4-0.3-2-0.8c-0.5-0.5-0.8-1.2-0.8-2.1c0-0.9,0.3-1.5,0.8-2s1.2-0.8,1.9-0.8
			c0.7,0,1.4,0.2,1.9,0.7s0.8,1.1,0.8,1.9L160.2,75.1L160.2,75.1z M155.9,74.2h3.1c0-0.5-0.1-0.8-0.4-1.1s-0.6-0.4-1.1-0.4
			s-0.8,0.1-1.1,0.4C156,73.4,155.9,73.7,155.9,74.2z"/>
	</g>
	<g>
		<path fill="#949494" d="M424.2,185.9H423v-7.2h1.9l2.2,4.5l2.2-4.5h1.9v7.2h-1.2v-5.6l-2.5,5h-0.7l-2.5-5L424.2,185.9L424.2,185.9
			z"/>
		<path fill="#949494" d="M437.4,185.9h-1v-0.7c-0.5,0.5-1.1,0.8-1.8,0.8c-0.6,0-1-0.2-1.4-0.5s-0.6-0.8-0.6-1.3s0.2-0.9,0.6-1.2
			c0.4-0.3,0.9-0.4,1.6-0.4h1.5v-0.2c0-0.7-0.4-1.1-1.2-1.1c-0.5,0-1,0.2-1.6,0.6l-0.5-0.7c0.7-0.5,1.4-0.8,2.3-0.8
			c0.6,0,1.2,0.2,1.6,0.5c0.4,0.3,0.6,0.8,0.6,1.5L437.4,185.9L437.4,185.9z M436.2,183.9v-0.5h-1.3c-0.8,0-1.2,0.3-1.2,0.8
			c0,0.3,0.1,0.5,0.3,0.6s0.5,0.2,0.9,0.2c0.4,0,0.7-0.1,1-0.3S436.2,184.2,436.2,183.9z"/>
		<path fill="#949494" d="M440.3,181.4v2.8c0,0.3,0.1,0.5,0.2,0.6s0.3,0.2,0.6,0.2s0.5-0.1,0.7-0.4l0.5,0.8
			c-0.4,0.4-0.9,0.5-1.3,0.5c-0.5,0-0.9-0.2-1.3-0.5c-0.3-0.3-0.5-0.8-0.5-1.4v-2.7h-0.7v-0.9h0.7v-1.7h1.1v1.7h1.4v0.9L440.3,181.4
			L440.3,181.4z"/>
		<path fill="#949494" d="M448.3,183.7H444c0,0.4,0.2,0.7,0.5,1c0.3,0.2,0.7,0.4,1.1,0.4c0.7,0,1.2-0.2,1.6-0.6l0.7,0.7
			c-0.6,0.6-1.4,0.9-2.3,0.9c-0.8,0-1.4-0.3-2-0.8c-0.5-0.5-0.8-1.2-0.8-2.1c0-0.9,0.3-1.5,0.8-2c0.5-0.5,1.2-0.8,1.9-0.8
			s1.4,0.2,1.9,0.7c0.5,0.4,0.8,1.1,0.8,1.9V183.7z M444,182.8h3.1c0-0.5-0.1-0.8-0.4-1.1s-0.6-0.4-1.1-0.4s-0.8,0.1-1.1,0.4
			C444.2,182,444,182.3,444,182.8z"/>
		<path fill="#949494" d="M452.4,181.5c-0.6,0-1,0.2-1.3,0.6s-0.4,0.9-0.4,1.5v2.3h-1.1v-5.5h1.1v1.1c0.2-0.3,0.4-0.6,0.8-0.8
			s0.7-0.3,1-0.3L452.4,181.5C452.4,181.5,452.4,181.5,452.4,181.5z"/>
		<path fill="#949494" d="M453.7,179.4c-0.1-0.1-0.2-0.3-0.2-0.5c0-0.2,0.1-0.4,0.2-0.5s0.3-0.2,0.5-0.2c0.2,0,0.4,0.1,0.5,0.2
			c0.1,0.1,0.2,0.3,0.2,0.5c0,0.2-0.1,0.4-0.2,0.5s-0.3,0.2-0.5,0.2C454,179.6,453.8,179.5,453.7,179.4z M454.8,185.9h-1.1v-5.5h1.1
			V185.9z"/>
		<path fill="#949494" d="M460.9,185.9h-1v-0.7c-0.5,0.5-1.1,0.8-1.8,0.8c-0.6,0-1-0.2-1.4-0.5c-0.4-0.3-0.6-0.8-0.6-1.3
			s0.2-0.9,0.6-1.2c0.4-0.3,0.9-0.4,1.6-0.4h1.5v-0.2c0-0.7-0.4-1.1-1.2-1.1c-0.5,0-1,0.2-1.6,0.6l-0.5-0.7c0.7-0.5,1.4-0.8,2.3-0.8
			c0.6,0,1.2,0.2,1.6,0.5c0.4,0.3,0.6,0.8,0.6,1.5L460.9,185.9L460.9,185.9z M459.7,183.9v-0.5h-1.3c-0.8,0-1.2,0.3-1.2,0.8
			c0,0.3,0.1,0.5,0.3,0.6s0.5,0.2,0.9,0.2c0.4,0,0.7-0.1,1-0.3S459.7,184.2,459.7,183.9z"/>
		<path fill="#949494" d="M466.3,183.4v-3h1.1v5.5h-1.1v-1c-0.2,0.3-0.4,0.6-0.8,0.8c-0.3,0.2-0.7,0.3-1.1,0.3
			c-0.6,0-1.1-0.2-1.5-0.6c-0.4-0.4-0.6-0.9-0.6-1.6v-3.3h1.1v3c0,1,0.4,1.5,1.3,1.5c0.4,0,0.7-0.1,1-0.4
			C466.1,184.3,466.3,183.9,466.3,183.4z"/>
		<path fill="#949494" d="M470,180.5l1.2,1.8l1.2-1.8h1.4l-1.9,2.7l2,2.8h-1.4l-1.3-1.8l-1.3,1.8h-1.3l1.9-2.8l-1.8-2.7L470,180.5
			L470,180.5z"/>
	</g>
	<g>
		<path fill="#949494" d="M76,178.9v2h3.2v1.1H76v3h-1.2v-7.2h4.8l0,1.1L76,178.9L76,178.9z"/>
		<path fill="#949494" d="M80.9,178.4c-0.1-0.1-0.2-0.3-0.2-0.5c0-0.2,0.1-0.4,0.2-0.5c0.1-0.1,0.3-0.2,0.5-0.2
			c0.2,0,0.4,0.1,0.5,0.2c0.1,0.1,0.2,0.3,0.2,0.5c0,0.2-0.1,0.4-0.2,0.5s-0.3,0.2-0.5,0.2C81.2,178.6,81.1,178.5,80.9,178.4z
			 M82,184.9h-1.1v-5.5H82V184.9z"/>
		<path fill="#949494" d="M88.1,184.9h-1v-0.7c-0.5,0.5-1.1,0.8-1.8,0.8c-0.6,0-1-0.2-1.4-0.5s-0.6-0.8-0.6-1.3s0.2-0.9,0.6-1.2
			c0.4-0.3,0.9-0.4,1.6-0.4h1.5v-0.2c0-0.7-0.4-1.1-1.2-1.1c-0.5,0-1,0.2-1.6,0.6l-0.5-0.7c0.7-0.5,1.4-0.8,2.3-0.8
			c0.6,0,1.2,0.2,1.6,0.5c0.4,0.3,0.6,0.8,0.6,1.5V184.9z M86.9,182.9v-0.5h-1.3c-0.8,0-1.2,0.3-1.2,0.8c0,0.3,0.1,0.5,0.3,0.6
			s0.5,0.2,0.9,0.2c0.4,0,0.7-0.1,1-0.3S86.9,183.2,86.9,182.9z"/>
		<path fill="#949494" d="M92.6,179.4c0.7,0,1.4,0.3,1.9,0.8s0.8,1.2,0.8,2c0,0.8-0.3,1.5-0.8,2.1s-1.1,0.8-1.8,0.8
			s-1.3-0.3-1.9-0.9v0.8h-1.1v-7.6h1.1v3.1C91.3,179.7,91.9,179.4,92.6,179.4z M90.8,182.2c0,0.5,0.2,0.9,0.5,1.3
			c0.3,0.3,0.7,0.5,1.1,0.5s0.8-0.2,1.2-0.5c0.3-0.3,0.5-0.8,0.5-1.3s-0.2-1-0.5-1.3c-0.3-0.3-0.7-0.5-1.2-0.5s-0.8,0.2-1.2,0.5
			C91,181.2,90.8,181.7,90.8,182.2z"/>
		<path fill="#949494" d="M96.7,178.4c-0.1-0.1-0.2-0.3-0.2-0.5c0-0.2,0.1-0.4,0.2-0.5c0.1-0.1,0.3-0.2,0.5-0.2
			c0.2,0,0.4,0.1,0.5,0.2c0.1,0.1,0.2,0.3,0.2,0.5c0,0.2-0.1,0.4-0.2,0.5s-0.3,0.2-0.5,0.2C97,178.6,96.8,178.5,96.7,178.4z
			 M97.7,184.9h-1.1v-5.5h1.1V184.9z"/>
		<path fill="#949494" d="M100.5,184.9h-1.1v-7.6h1.1V184.9z"/>
		<path fill="#949494" d="M102.3,178.4c-0.1-0.1-0.2-0.3-0.2-0.5c0-0.2,0.1-0.4,0.2-0.5c0.1-0.1,0.3-0.2,0.5-0.2
			c0.2,0,0.4,0.1,0.5,0.2c0.1,0.1,0.2,0.3,0.2,0.5c0,0.2-0.1,0.4-0.2,0.5s-0.3,0.2-0.5,0.2C102.6,178.6,102.4,178.5,102.3,178.4z
			 M103.4,184.9h-1.1v-5.5h1.1V184.9z"/>
		<path fill="#949494" d="M106.4,180.4v2.8c0,0.3,0.1,0.5,0.2,0.6s0.3,0.2,0.6,0.2s0.5-0.1,0.7-0.4l0.5,0.8
			c-0.4,0.4-0.8,0.5-1.3,0.5s-0.9-0.2-1.3-0.5c-0.3-0.3-0.5-0.8-0.5-1.4v-2.7h-0.7v-0.9h0.7v-1.7h1.1v1.7h1.4v0.9L106.4,180.4
			L106.4,180.4z"/>
		<path fill="#949494" d="M114.4,182.7h-4.3c0,0.4,0.2,0.7,0.5,1c0.3,0.2,0.7,0.4,1.1,0.4c0.7,0,1.2-0.2,1.6-0.6l0.7,0.7
			c-0.6,0.6-1.4,0.9-2.3,0.9c-0.8,0-1.4-0.3-2-0.8c-0.5-0.5-0.8-1.2-0.8-2.1c0-0.9,0.3-1.5,0.8-2s1.2-0.8,1.9-0.8
			c0.7,0,1.4,0.2,1.9,0.7s0.8,1.1,0.8,1.9L114.4,182.7L114.4,182.7z M110.1,181.8h3.1c0-0.5-0.1-0.8-0.4-1.1s-0.6-0.4-1.1-0.4
			s-0.8,0.1-1.1,0.4C110.3,181,110.1,181.3,110.1,181.8z M112.3,178.7h-1l1.1-1.5l1.2,0.5L112.3,178.7z"/>
	</g>
	<g>
		<path fill="#949494" d="M123.5,292.2v2h3.2v1.1h-3.2v3h-1.2V291h4.8l0,1.1H123.5z"/>
		<path fill="#949494" d="M128.4,291.7c-0.1-0.1-0.2-0.3-0.2-0.5c0-0.2,0.1-0.4,0.2-0.5c0.1-0.1,0.3-0.2,0.5-0.2
			c0.2,0,0.4,0.1,0.5,0.2c0.1,0.1,0.2,0.3,0.2,0.5c0,0.2-0.1,0.4-0.2,0.5s-0.3,0.2-0.5,0.2C128.7,291.9,128.6,291.8,128.4,291.7z
			 M129.5,298.2h-1.1v-5.5h1.1V298.2z"/>
		<path fill="#949494" d="M135.6,298.2h-1v-0.7c-0.5,0.5-1.1,0.8-1.8,0.8c-0.6,0-1-0.2-1.4-0.5c-0.4-0.3-0.6-0.8-0.6-1.3
			s0.2-0.9,0.6-1.2c0.4-0.3,0.9-0.4,1.6-0.4h1.5v-0.2c0-0.7-0.4-1.1-1.2-1.1c-0.5,0-1,0.2-1.6,0.6l-0.5-0.7c0.7-0.5,1.4-0.8,2.3-0.8
			c0.6,0,1.2,0.2,1.6,0.5c0.4,0.3,0.6,0.8,0.6,1.5V298.2z M134.4,296.2v-0.5h-1.3c-0.8,0-1.2,0.3-1.2,0.8c0,0.3,0.1,0.5,0.3,0.6
			c0.2,0.1,0.5,0.2,0.9,0.2s0.7-0.1,1-0.3C134.3,296.8,134.4,296.5,134.4,296.2z"/>
		<path fill="#949494" d="M140.1,292.7c0.7,0,1.4,0.3,1.9,0.8s0.8,1.2,0.8,2s-0.3,1.5-0.8,2.1c-0.5,0.5-1.1,0.8-1.8,0.8
			s-1.3-0.3-1.9-0.9v0.8h-1.1v-7.6h1.1v3.1C138.8,293,139.4,292.7,140.1,292.7z M138.3,295.5c0,0.5,0.2,0.9,0.5,1.3
			c0.3,0.3,0.7,0.5,1.1,0.5s0.8-0.2,1.2-0.5c0.3-0.3,0.5-0.8,0.5-1.3c0-0.5-0.2-1-0.5-1.3c-0.3-0.3-0.7-0.5-1.2-0.5
			s-0.8,0.2-1.2,0.5C138.5,294.5,138.3,295,138.3,295.5z"/>
		<path fill="#949494" d="M144.1,291.7c-0.1-0.1-0.2-0.3-0.2-0.5c0-0.2,0.1-0.4,0.2-0.5c0.1-0.1,0.3-0.2,0.5-0.2
			c0.2,0,0.4,0.1,0.5,0.2c0.1,0.1,0.2,0.3,0.2,0.5c0,0.2-0.1,0.4-0.2,0.5s-0.3,0.2-0.5,0.2C144.5,291.9,144.3,291.8,144.1,291.7z
			 M145.2,298.2h-1.1v-5.5h1.1V298.2z"/>
		<path fill="#949494" d="M148,298.2h-1.1v-7.6h1.1V298.2z"/>
		<path fill="#949494" d="M149.8,291.7c-0.1-0.1-0.2-0.3-0.2-0.5c0-0.2,0.1-0.4,0.2-0.5c0.1-0.1,0.3-0.2,0.5-0.2
			c0.2,0,0.4,0.1,0.5,0.2c0.1,0.1,0.2,0.3,0.2,0.5c0,0.2-0.1,0.4-0.2,0.5s-0.3,0.2-0.5,0.2C150.1,291.9,149.9,291.8,149.8,291.7z
			 M150.8,298.2h-1.1v-5.5h1.1V298.2z"/>
		<path fill="#949494" d="M153.9,293.7v2.8c0,0.3,0.1,0.5,0.2,0.6c0.1,0.2,0.3,0.2,0.6,0.2s0.5-0.1,0.7-0.4l0.5,0.8
			c-0.4,0.4-0.9,0.5-1.3,0.5s-0.9-0.2-1.3-0.5c-0.3-0.3-0.5-0.8-0.5-1.4v-2.7h-0.7v-0.9h0.7V291h1.1v1.7h1.4v0.9H153.9z"/>
		<path fill="#949494" d="M161.9,296h-4.3c0,0.4,0.2,0.7,0.5,1c0.3,0.2,0.7,0.4,1.1,0.4c0.7,0,1.2-0.2,1.6-0.6l0.7,0.7
			c-0.6,0.6-1.4,0.9-2.3,0.9c-0.8,0-1.4-0.3-2-0.8s-0.8-1.2-0.8-2.1s0.3-1.5,0.8-2s1.2-0.8,1.9-0.8c0.7,0,1.4,0.2,1.9,0.7
			c0.5,0.4,0.8,1.1,0.8,1.9L161.9,296L161.9,296z M157.6,295.1h3.1c0-0.5-0.1-0.8-0.4-1.1c-0.3-0.2-0.6-0.4-1.1-0.4
			s-0.8,0.1-1.1,0.4C157.8,294.3,157.6,294.6,157.6,295.1z M159.8,292h-1l1.1-1.5l1.2,0.5L159.8,292z"/>
	</g>
	<g>
		<path fill="#949494" d="M378.9,292.2v2h3.2v1.1h-3.2v3h-1.2V291h4.8l0,1.1H378.9z"/>
		<path fill="#949494" d="M383.8,291.7c-0.1-0.1-0.2-0.3-0.2-0.5c0-0.2,0.1-0.4,0.2-0.5c0.1-0.1,0.3-0.2,0.5-0.2s0.4,0.1,0.5,0.2
			c0.1,0.1,0.2,0.3,0.2,0.5c0,0.2-0.1,0.4-0.2,0.5c-0.1,0.1-0.3,0.2-0.5,0.2C384.1,291.9,384,291.8,383.8,291.7z M384.9,298.2h-1.1
			v-5.5h1.1V298.2z"/>
		<path fill="#949494" d="M391,298.2h-1v-0.7c-0.5,0.5-1.1,0.8-1.8,0.8c-0.6,0-1-0.2-1.4-0.5c-0.4-0.3-0.6-0.8-0.6-1.3
			s0.2-0.9,0.6-1.2c0.4-0.3,0.9-0.4,1.6-0.4h1.5v-0.2c0-0.7-0.4-1.1-1.2-1.1c-0.5,0-1,0.2-1.6,0.6l-0.5-0.7c0.7-0.5,1.4-0.8,2.3-0.8
			c0.6,0,1.2,0.2,1.6,0.5c0.4,0.3,0.6,0.8,0.6,1.5L391,298.2L391,298.2z M389.8,296.2v-0.5h-1.3c-0.8,0-1.2,0.3-1.2,0.8
			c0,0.3,0.1,0.5,0.3,0.6c0.2,0.1,0.5,0.2,0.9,0.2c0.4,0,0.7-0.1,1-0.3C389.7,296.8,389.8,296.5,389.8,296.2z"/>
		<path fill="#949494" d="M395.5,292.7c0.7,0,1.4,0.3,1.9,0.8c0.5,0.5,0.8,1.2,0.8,2s-0.3,1.5-0.8,2.1c-0.5,0.5-1.1,0.8-1.8,0.8
			s-1.3-0.3-1.9-0.9v0.8h-1.1v-7.6h1.1v3.1C394.2,293,394.8,292.7,395.5,292.7z M393.7,295.5c0,0.5,0.2,0.9,0.5,1.3s0.7,0.5,1.1,0.5
			s0.8-0.2,1.2-0.5c0.3-0.3,0.5-0.8,0.5-1.3c0-0.5-0.2-1-0.5-1.3s-0.7-0.5-1.2-0.5c-0.5,0-0.8,0.2-1.2,0.5S393.7,295,393.7,295.5z"
			/>
		<path fill="#949494" d="M399.5,291.7c-0.1-0.1-0.2-0.3-0.2-0.5c0-0.2,0.1-0.4,0.2-0.5c0.1-0.1,0.3-0.2,0.5-0.2s0.4,0.1,0.5,0.2
			c0.1,0.1,0.2,0.3,0.2,0.5c0,0.2-0.1,0.4-0.2,0.5c-0.1,0.1-0.3,0.2-0.5,0.2S399.7,291.8,399.5,291.7z M400.6,298.2h-1.1v-5.5h1.1
			V298.2z"/>
		<path fill="#949494" d="M403.4,298.2h-1.1v-7.6h1.1V298.2z"/>
		<path fill="#949494" d="M405.2,291.7c-0.1-0.1-0.2-0.3-0.2-0.5c0-0.2,0.1-0.4,0.2-0.5c0.1-0.1,0.3-0.2,0.5-0.2s0.4,0.1,0.5,0.2
			c0.1,0.1,0.2,0.3,0.2,0.5c0,0.2-0.1,0.4-0.2,0.5c-0.1,0.1-0.3,0.2-0.5,0.2S405.3,291.8,405.2,291.7z M406.2,298.2h-1.1v-5.5h1.1
			V298.2z"/>
		<path fill="#949494" d="M409.3,293.7v2.8c0,0.3,0.1,0.5,0.2,0.6c0.1,0.2,0.3,0.2,0.6,0.2s0.5-0.1,0.7-0.4l0.5,0.8
			c-0.4,0.4-0.9,0.5-1.3,0.5s-0.9-0.2-1.3-0.5c-0.3-0.3-0.5-0.8-0.5-1.4v-2.7h-0.7v-0.9h0.7V291h1.1v1.7h1.4v0.9H409.3z"/>
		<path fill="#949494" d="M417.3,296H413c0,0.4,0.2,0.7,0.5,1c0.3,0.2,0.7,0.4,1.1,0.4c0.7,0,1.2-0.2,1.6-0.6l0.7,0.7
			c-0.6,0.6-1.4,0.9-2.3,0.9c-0.8,0-1.4-0.3-2-0.8c-0.5-0.5-0.8-1.2-0.8-2.1s0.3-1.5,0.8-2s1.2-0.8,1.9-0.8s1.4,0.2,1.9,0.7
			c0.5,0.4,0.8,1.1,0.8,1.9V296z M413,295.1h3.1c0-0.5-0.1-0.8-0.4-1.1c-0.3-0.2-0.6-0.4-1.1-0.4c-0.4,0-0.8,0.1-1.1,0.4
			C413.2,294.3,413,294.6,413,295.1z M415.2,292h-1l1.1-1.5l1.2,0.5L415.2,292z"/>
	</g>
	<g>
		<line fill="none" stroke="#000000" stroke-miterlimit="10" x1="271" y1="181.9" x2="271" y2="74.4"/>
		<circle cx="271" cy="73.2" r="2.5"/>
	</g>
	<line fill="none" stroke="#000000" stroke-miterlimit="10" x1="271" y1="181.9" x2="327.1" y2="125.8"/>
	<line fill="none" stroke="#000000" stroke-miterlimit="10" x1="271" y1="181.9" x2="366.4" y2="181.9"/>
	<circle cx="367.7" cy="181.9" r="2.5"/>
	<g>
		<line fill="none" stroke="#000000" stroke-miterlimit="10" x1="271" y1="181.9" x2="347" y2="257.9"/>
		<circle cx="347.8" cy="258.8" r="2.5"/>
	</g>
	<line fill="none" stroke="#000000" stroke-miterlimit="10" x1="271" y1="181.9" x2="271" y2="265.1"/>
	<circle cx="271" cy="264.1" r="2.5"/>
	<line fill="none" stroke="#000000" stroke-miterlimit="10" x1="271" y1="181.9" x2="185.5" y2="267.4"/>
	<ellipse transform="matrix(-0.7072 0.7071 -0.7071 -0.7072 505.0807 326.849)" cx="184.9" cy="268" rx="2.4" ry="2.5"/>
	<line fill="none" stroke="#000000" stroke-miterlimit="10" x1="271" y1="181.9" x2="215.3" y2="181.9"/>
	<circle cx="215.3" cy="181.9" r="2.5"/>
	<line fill="none" stroke="#000000" stroke-miterlimit="10" x1="271" y1="181.9" x2="222.6" y2="133.5"/>
	<circle cx="222.2" cy="133.1" r="2.5"/>
	<circle cx="328.3" cy="124.3" r="2.5"/>
	
		<polygon opacity="0.8" fill="#949494" stroke="#666666" stroke-width="2" stroke-miterlimit="10" enable-background="new    " points="
		241.9,152.8 228.6,181.9 232,222 271,303.8 328.3,240.7 367.7,181.9 309.5,143.9 271,60 	"/>
	
		<polygon opacity="0.8" fill="#4ACCAE" stroke="#17A37B" stroke-width="2" stroke-miterlimit="10" enable-background="new    " points="
		222.6,133.5 215.3,183 184.9,269 271,264.1 347.8,258.8 367.7,181.9 328.3,124.3 271,73.2 	"/>
</g>
</svg>
