<?xml version="1.0" encoding="utf-8"?>
<!-- Generator: Adobe Illustrator 16.0.0, SVG Export Plug-In . SVG Version: 6.00 Build 0)  -->
<!DOCTYPE svg PUBLIC "-//W3C//DTD SVG 1.1//EN" "http://www.w3.org/Graphics/SVG/1.1/DTD/svg11.dtd">
<svg version="1.1" id="Calque_1" xmlns="http://www.w3.org/2000/svg" xmlns:xlink="http://www.w3.org/1999/xlink" x="0px" y="0px"
	 width="546px" height="362px" viewBox="0 0 546 362" enable-background="new 0 0 546 362" xml:space="preserve">
<g>
	<path fill="none" stroke="#000000" stroke-miterlimit="10" d="M270.976,317.106c-74.545,0-135.192-60.646-135.192-135.19
		c0-74.546,60.647-135.192,135.192-135.192c74.546,0,135.192,60.646,135.192,135.192
		C406.168,256.46,345.521,317.106,270.976,317.106z"/>
	<path fill="none" stroke="#000000" stroke-width="0.5" stroke-miterlimit="10" d="M270.976,303.847
		c-67.235,0-121.933-54.695-121.933-121.931c0-67.236,54.697-121.933,121.933-121.933s121.933,54.696,121.933,121.933
		C392.908,249.151,338.211,303.847,270.976,303.847z"/>
	<path fill="none" stroke="#000000" stroke-width="0.5" stroke-miterlimit="10" d="M270.976,290.587
		c-59.926,0-108.673-48.746-108.673-108.671c0-59.926,48.748-108.673,108.673-108.673c59.927,0,108.674,48.747,108.674,108.673
		C379.649,241.841,330.902,290.587,270.976,290.587z"/>
	<path fill="none" stroke="#000000" stroke-width="0.5" stroke-miterlimit="10" d="M270.976,277.329
		c-52.616,0-95.414-42.798-95.414-95.413c0-52.617,42.798-95.414,95.414-95.414c52.616,0,95.413,42.796,95.413,95.414
		C366.389,234.531,323.592,277.329,270.976,277.329z"/>
	<path fill="none" stroke="#000000" stroke-width="0.5" stroke-miterlimit="10" d="M270.976,264.068
		c-45.306,0-82.154-36.847-82.154-82.152c0-45.307,36.848-82.154,82.154-82.154c45.307,0,82.155,36.848,82.155,82.154
		C353.131,227.222,316.282,264.068,270.976,264.068z"/>
	<path fill="none" stroke="#000000" stroke-width="0.5" stroke-miterlimit="10" d="M270.976,250.81
		c-37.996,0-68.895-30.897-68.895-68.894c0-37.997,30.899-68.896,68.895-68.896c37.997,0,68.894,30.898,68.894,68.896
		C339.869,219.912,308.973,250.81,270.976,250.81z"/>
	<path fill="none" stroke="#000000" stroke-width="0.5" stroke-miterlimit="10" d="M270.976,237.551
		c-30.687,0-55.636-24.949-55.636-55.635c0-30.688,24.949-55.636,55.636-55.636s55.636,24.949,55.636,55.636
		C326.611,212.602,301.662,237.551,270.976,237.551z"/>
	<path fill="none" stroke="#000000" stroke-width="0.5" stroke-miterlimit="10" d="M270.976,224.291
		c-23.376,0-42.376-18.998-42.376-42.375c0-23.378,19-42.377,42.376-42.377c23.378,0,42.375,18.999,42.375,42.377
		C313.351,205.293,294.354,224.291,270.976,224.291z"/>
	<path fill="none" stroke="#000000" stroke-width="0.5" stroke-miterlimit="10" d="M270.976,211.031
		c-16.067,0-29.117-13.049-29.117-29.115c0-16.068,13.05-29.117,29.117-29.117c16.066,0,29.116,13.049,29.116,29.117
		C300.092,197.982,287.042,211.031,270.976,211.031z"/>
	<circle fill="#999999" cx="270.975" cy="181.916" r="15.857"/>
	<polygon opacity="0.8" fill="#5B5C5C" points="222.574,133.515 215.339,183.039 184.85,268.983 270.976,264.068 347.816,258.759 
		367.676,181.916 328.291,124.341 270.976,73.243 	"/>
	<line fill="none" stroke="#6D6D6D" stroke-miterlimit="10" x1="270.976" y1="34.878" x2="270.976" y2="331.626"/>
	<line fill="none" stroke="#6D6D6D" stroke-miterlimit="10" x1="374.164" y1="78.232" x2="164.331" y2="288.065"/>
	<line fill="none" stroke="#6D6D6D" stroke-miterlimit="10" x1="416.473" y1="181.853" x2="119.724" y2="181.853"/>
	<line fill="none" stroke="#6D6D6D" stroke-miterlimit="10" x1="373.119" y1="285.04" x2="163.286" y2="75.208"/>
	<g>
		<path d="M233.973,17.444c0.691,0.626,1.036,1.497,1.036,2.612s-0.335,1.998-1.005,2.647c-0.671,0.65-1.697,0.975-3.079,0.975
			h-2.381v-7.173h2.463C232.293,16.505,233.281,16.818,233.973,17.444z M233.788,20.086c0-1.642-0.94-2.463-2.822-2.463h-1.211
			v4.916h1.344c0.869,0,1.534-0.207,1.996-0.621C233.557,21.504,233.788,20.894,233.788,20.086z"/>
		<path d="M241.484,21.451h-4.279c0.027,0.397,0.208,0.717,0.544,0.959c0.335,0.243,0.718,0.365,1.149,0.365
			c0.684,0,1.204-0.216,1.56-0.647l0.657,0.719c-0.588,0.609-1.354,0.913-2.299,0.913c-0.766,0-1.418-0.255-1.955-0.765
			c-0.537-0.509-0.806-1.193-0.806-2.052c0-0.858,0.273-1.541,0.821-2.047s1.192-0.759,1.935-0.759c0.742,0,1.374,0.224,1.894,0.672
			c0.52,0.448,0.78,1.066,0.78,1.853V21.451z M237.205,20.548h3.13c0-0.458-0.144-0.811-0.431-1.057
			c-0.287-0.246-0.641-0.37-1.062-0.37s-0.799,0.128-1.134,0.385C237.373,19.763,237.205,20.11,237.205,20.548z"/>
		<path d="M243.896,23.678h-1.149v-7.615h1.149V23.678z"/>
		<path d="M249.981,23.678h-1.047V22.95c-0.452,0.541-1.057,0.811-1.816,0.811c-0.568,0-1.038-0.161-1.411-0.482
			c-0.373-0.321-0.559-0.75-0.559-1.288s0.198-0.939,0.595-1.206c0.396-0.267,0.934-0.4,1.611-0.4h1.488v-0.206
			c0-0.725-0.404-1.088-1.211-1.088c-0.506,0-1.033,0.185-1.581,0.554l-0.513-0.718c0.664-0.527,1.417-0.79,2.258-0.79
			c0.643,0,1.168,0.163,1.575,0.487c0.407,0.325,0.611,0.836,0.611,1.534V23.678z M248.832,21.646v-0.462h-1.293
			c-0.828,0-1.242,0.26-1.242,0.78c0,0.267,0.103,0.471,0.308,0.611s0.491,0.21,0.857,0.21c0.366,0,0.686-0.103,0.959-0.308
			S248.832,21.995,248.832,21.646z"/>
		<path d="M251.653,17.131c-0.144-0.144-0.215-0.314-0.215-0.513c0-0.198,0.072-0.369,0.215-0.513
			c0.144-0.144,0.315-0.215,0.513-0.215c0.199,0,0.37,0.072,0.513,0.215c0.144,0.144,0.216,0.315,0.216,0.513
			c0,0.199-0.072,0.37-0.216,0.513s-0.314,0.216-0.513,0.216C251.968,17.347,251.797,17.274,251.653,17.131z M252.731,23.678h-1.149
			v-5.459h1.149V23.678z"/>
		<path d="M257.625,22.98c-0.513-0.52-0.77-1.204-0.77-2.053c0-0.848,0.263-1.525,0.79-2.032s1.155-0.759,1.883-0.759
			s1.315,0.308,1.76,0.923v-2.997h1.149v7.615h-1.149v-0.821c-0.424,0.602-1.043,0.903-1.857,0.903
			C258.741,23.76,258.139,23.5,257.625,22.98z M258.005,20.974c0,0.523,0.167,0.949,0.503,1.278c0.335,0.328,0.729,0.492,1.18,0.492
			c0.452,0,0.835-0.166,1.149-0.498c0.315-0.332,0.472-0.758,0.472-1.277c0-0.52-0.157-0.955-0.472-1.304
			c-0.314-0.349-0.701-0.523-1.16-0.523c-0.458,0-0.852,0.175-1.18,0.523C258.169,20.015,258.005,20.451,258.005,20.974z"/>
		<path d="M269.181,21.451h-4.279c0.027,0.397,0.208,0.717,0.544,0.959c0.335,0.243,0.718,0.365,1.149,0.365
			c0.684,0,1.204-0.216,1.56-0.647l0.657,0.719c-0.588,0.609-1.354,0.913-2.299,0.913c-0.766,0-1.418-0.255-1.955-0.765
			c-0.537-0.509-0.806-1.193-0.806-2.052c0-0.858,0.273-1.541,0.821-2.047s1.192-0.759,1.935-0.759c0.742,0,1.374,0.224,1.894,0.672
			c0.52,0.448,0.78,1.066,0.78,1.853V21.451z M264.901,20.548h3.13c0-0.458-0.144-0.811-0.431-1.057
			c-0.287-0.246-0.641-0.37-1.062-0.37s-0.799,0.128-1.134,0.385C265.069,19.763,264.901,20.11,264.901,20.548z"/>
		<path d="M274.403,23.678h-1.149v-7.615h1.149V23.678z"/>
		<path d="M276.137,17.131c-0.143-0.144-0.215-0.314-0.215-0.513c0-0.198,0.072-0.369,0.215-0.513
			c0.145-0.144,0.315-0.215,0.514-0.215c0.199,0,0.369,0.072,0.514,0.215c0.143,0.144,0.215,0.315,0.215,0.513
			c0,0.199-0.072,0.37-0.215,0.513c-0.145,0.144-0.314,0.216-0.514,0.216C276.452,17.347,276.281,17.274,276.137,17.131z
			 M277.215,23.678h-1.149v-5.459h1.149V23.678z"/>
		<path d="M280.324,23.678l-2.196-5.459h1.19l1.662,4.125l1.663-4.125h1.19l-2.196,5.459H280.324z"/>
		<path d="M287.61,19.296c-0.567,0-0.995,0.185-1.282,0.554c-0.287,0.369-0.432,0.865-0.432,1.488v2.34h-1.149v-5.459h1.149v1.098
			c0.186-0.342,0.437-0.623,0.754-0.842c0.318-0.219,0.656-0.332,1.012-0.338l0.01,1.16
			C287.651,19.296,287.631,19.296,287.61,19.296z"/>
		<path d="M293.193,23.678h-1.047V22.95c-0.452,0.541-1.058,0.811-1.816,0.811c-0.568,0-1.039-0.161-1.412-0.482
			c-0.373-0.321-0.559-0.75-0.559-1.288s0.198-0.939,0.596-1.206c0.396-0.267,0.934-0.4,1.61-0.4h1.488v-0.206
			c0-0.725-0.403-1.088-1.211-1.088c-0.507,0-1.033,0.185-1.581,0.554l-0.513-0.718c0.663-0.527,1.417-0.79,2.258-0.79
			c0.644,0,1.168,0.163,1.575,0.487c0.407,0.325,0.611,0.836,0.611,1.534V23.678z M292.043,21.646v-0.462h-1.293
			c-0.828,0-1.241,0.26-1.241,0.78c0,0.267,0.103,0.471,0.308,0.611s0.49,0.21,0.857,0.21c0.365,0,0.686-0.103,0.959-0.308
			S292.043,21.995,292.043,21.646z"/>
		<path d="M294.865,17.131c-0.144-0.144-0.215-0.314-0.215-0.513c0-0.198,0.071-0.369,0.215-0.513
			c0.145-0.144,0.314-0.215,0.514-0.215c0.198,0,0.369,0.072,0.513,0.215c0.144,0.144,0.216,0.315,0.216,0.513
			c0,0.199-0.072,0.37-0.216,0.513s-0.314,0.216-0.513,0.216C295.18,17.347,295.01,17.274,294.865,17.131z M295.943,23.678h-1.15
			v-5.459h1.15V23.678z"/>
		<path d="M301.494,22.046c0,0.52-0.188,0.936-0.564,1.247c-0.376,0.312-0.858,0.467-1.447,0.467c-0.396,0-0.809-0.072-1.236-0.215
			s-0.805-0.346-1.133-0.605l0.553-0.893c0.637,0.479,1.253,0.718,1.848,0.718c0.26,0,0.465-0.06,0.616-0.179
			c0.15-0.12,0.226-0.272,0.226-0.457c0-0.273-0.363-0.52-1.088-0.739c-0.055-0.021-0.096-0.034-0.123-0.041
			c-1.136-0.308-1.703-0.821-1.703-1.539c0-0.506,0.196-0.912,0.59-1.216c0.393-0.304,0.904-0.457,1.534-0.457
			s1.225,0.185,1.786,0.554l-0.432,0.852c-0.445-0.294-0.928-0.441-1.447-0.441c-0.273,0-0.496,0.05-0.667,0.149
			s-0.257,0.248-0.257,0.446c0,0.178,0.09,0.308,0.268,0.39c0.123,0.062,0.295,0.12,0.518,0.174c0.223,0.055,0.42,0.11,0.59,0.165
			c0.172,0.055,0.338,0.116,0.498,0.185c0.161,0.068,0.334,0.164,0.519,0.287C301.311,21.144,301.494,21.527,301.494,22.046z"/>
		<path d="M307.365,22.944c-0.548,0.544-1.232,0.816-2.053,0.816c-0.821,0-1.506-0.272-2.053-0.816s-0.82-1.209-0.82-1.996
			c0-0.787,0.273-1.452,0.82-1.996s1.231-0.816,2.053-0.816c0.82,0,1.505,0.272,2.053,0.816c0.547,0.544,0.82,1.209,0.82,1.996
			C308.186,21.735,307.912,22.4,307.365,22.944z M304.076,22.236c0.324,0.332,0.736,0.498,1.236,0.498
			c0.499,0,0.911-0.166,1.236-0.498c0.324-0.332,0.487-0.761,0.487-1.288c0-0.526-0.163-0.956-0.487-1.288
			c-0.325-0.332-0.737-0.498-1.236-0.498c-0.5,0-0.912,0.166-1.236,0.498c-0.326,0.332-0.488,0.761-0.488,1.288
			C303.588,21.476,303.75,21.905,304.076,22.236z"/>
		<path d="M310.639,20.723v2.956h-1.15v-5.459h1.15v0.996c0.185-0.335,0.439-0.599,0.764-0.791c0.325-0.191,0.676-0.287,1.053-0.287
			c0.615,0,1.113,0.188,1.492,0.564c0.381,0.376,0.57,0.92,0.57,1.631v3.346h-1.149v-2.997c0-1.006-0.417-1.508-1.252-1.508
			c-0.397,0-0.743,0.131-1.036,0.395C310.785,19.832,310.639,20.216,310.639,20.723z"/>
	</g>
	<g>
		<path d="M257.944,341.563c0.417,0,0.776-0.07,1.078-0.211c0.301-0.139,0.616-0.363,0.944-0.672l0.78,0.801
			c-0.76,0.842-1.682,1.262-2.766,1.262c-1.084,0-1.984-0.348-2.699-1.047c-0.715-0.697-1.072-1.58-1.072-2.646
			c0-1.068,0.364-1.957,1.093-2.668c0.729-0.713,1.649-1.068,2.761-1.068s2.041,0.41,2.786,1.232l-0.77,0.842
			c-0.342-0.33-0.666-0.559-0.97-0.688c-0.305-0.131-0.662-0.195-1.073-0.195c-0.725,0-1.334,0.234-1.827,0.703
			s-0.739,1.066-0.739,1.795s0.245,1.338,0.734,1.826C256.694,341.318,257.274,341.563,257.944,341.563z"/>
		<path d="M264.922,338.279c-0.568,0-0.996,0.184-1.283,0.553c-0.287,0.371-0.431,0.867-0.431,1.488v2.34h-1.149v-5.459h1.149v1.098
			c0.185-0.342,0.437-0.623,0.754-0.842c0.318-0.219,0.655-0.332,1.011-0.338l0.01,1.16
			C264.963,338.279,264.943,338.279,264.922,338.279z"/>
		<path d="M266.205,336.113c-0.144-0.145-0.215-0.314-0.215-0.514c0-0.197,0.072-0.369,0.215-0.512
			c0.144-0.145,0.315-0.217,0.513-0.217c0.199,0,0.37,0.072,0.513,0.217c0.144,0.143,0.216,0.314,0.216,0.512
			c0,0.199-0.072,0.369-0.216,0.514s-0.314,0.215-0.513,0.215C266.52,336.328,266.349,336.258,266.205,336.113z M267.282,342.66
			h-1.149v-5.459h1.149V342.66z"/>
		<path d="M270.361,338.125v2.771c0,0.26,0.068,0.467,0.205,0.619c0.137,0.154,0.328,0.232,0.574,0.232s0.482-0.121,0.708-0.359
			l0.472,0.811c-0.403,0.363-0.85,0.543-1.339,0.543s-0.906-0.168-1.252-0.508c-0.346-0.338-0.518-0.795-0.518-1.369v-2.74h-0.688
			v-0.924h0.688v-1.713h1.15v1.713h1.436v0.924H270.361z"/>
		<path d="M278.314,340.434h-4.279c0.027,0.396,0.208,0.717,0.543,0.959c0.336,0.244,0.719,0.365,1.15,0.365
			c0.684,0,1.203-0.215,1.559-0.646l0.657,0.719c-0.589,0.607-1.354,0.912-2.299,0.912c-0.767,0-1.418-0.254-1.954-0.764
			c-0.537-0.51-0.807-1.193-0.807-2.053s0.273-1.541,0.821-2.047s1.192-0.76,1.935-0.76s1.373,0.225,1.894,0.672
			c0.52,0.449,0.78,1.066,0.78,1.854V340.434z M274.035,339.531h3.129c0-0.459-0.143-0.811-0.431-1.057
			c-0.287-0.248-0.642-0.371-1.062-0.371c-0.422,0-0.799,0.129-1.135,0.385C274.202,338.746,274.035,339.094,274.035,339.531z
			 M276.631,336.504h-1.047l-1.252-0.986l1.211-0.502L276.631,336.504z"/>
		<path d="M282.439,338.279c-0.568,0-0.996,0.184-1.283,0.553c-0.287,0.371-0.432,0.867-0.432,1.488v2.34h-1.148v-5.459h1.148v1.098
			c0.186-0.342,0.438-0.623,0.755-0.842c0.318-0.219,0.655-0.332,1.011-0.338l0.01,1.16
			C282.48,338.279,282.459,338.279,282.439,338.279z"/>
		<path d="M288.729,340.434h-4.279c0.027,0.396,0.208,0.717,0.544,0.959c0.335,0.244,0.719,0.365,1.149,0.365
			c0.684,0,1.204-0.215,1.56-0.646l0.656,0.719c-0.588,0.607-1.354,0.912-2.299,0.912c-0.766,0-1.418-0.254-1.954-0.764
			c-0.537-0.51-0.806-1.193-0.806-2.053s0.273-1.541,0.82-2.047c0.548-0.506,1.192-0.76,1.936-0.76c0.742,0,1.373,0.225,1.893,0.672
			c0.52,0.449,0.78,1.066,0.78,1.854V340.434z M284.45,339.531h3.13c0-0.459-0.144-0.811-0.432-1.057
			c-0.287-0.248-0.641-0.371-1.062-0.371s-0.799,0.129-1.134,0.385C284.617,338.746,284.45,339.094,284.45,339.531z"/>
	</g>
	<g>
		<path d="M388.246,71.06c0.691,0.626,1.036,1.497,1.036,2.612s-0.335,1.998-1.005,2.647c-0.672,0.65-1.697,0.975-3.079,0.975
			h-2.381v-7.173h2.463C386.566,70.121,387.555,70.434,388.246,71.06z M388.061,73.703c0-1.642-0.939-2.463-2.821-2.463h-1.211
			v4.916h1.345c0.868,0,1.533-0.207,1.996-0.621C387.83,75.121,388.061,74.51,388.061,73.703z"/>
		<path d="M395.758,75.067h-4.279c0.027,0.397,0.209,0.717,0.544,0.959c0.335,0.243,0.718,0.365,1.149,0.365
			c0.684,0,1.203-0.216,1.56-0.647l0.657,0.719c-0.589,0.609-1.355,0.913-2.299,0.913c-0.767,0-1.418-0.255-1.955-0.765
			c-0.537-0.509-0.806-1.193-0.806-2.052c0-0.858,0.273-1.541,0.821-2.047c0.547-0.506,1.191-0.759,1.934-0.759
			s1.374,0.224,1.895,0.672c0.52,0.448,0.779,1.066,0.779,1.853V75.067z M391.479,74.165h3.13c0-0.458-0.144-0.811-0.431-1.057
			s-0.642-0.37-1.063-0.37s-0.799,0.128-1.134,0.385C391.646,73.379,391.479,73.727,391.479,74.165z"/>
		<path d="M400.909,75.663c0,0.52-0.188,0.936-0.564,1.247s-0.858,0.467-1.447,0.467c-0.396,0-0.81-0.072-1.236-0.215
			c-0.428-0.144-0.806-0.346-1.134-0.605l0.554-0.893c0.637,0.479,1.253,0.718,1.848,0.718c0.26,0,0.465-0.06,0.616-0.179
			c0.15-0.12,0.225-0.272,0.225-0.457c0-0.273-0.362-0.52-1.088-0.739c-0.055-0.021-0.096-0.034-0.123-0.041
			c-1.135-0.308-1.703-0.821-1.703-1.539c0-0.506,0.197-0.912,0.59-1.216c0.394-0.304,0.904-0.457,1.535-0.457
			c0.629,0,1.225,0.185,1.785,0.554l-0.432,0.852c-0.444-0.294-0.927-0.441-1.447-0.441c-0.273,0-0.496,0.05-0.666,0.149
			c-0.172,0.099-0.257,0.248-0.257,0.446c0,0.178,0.089,0.308,0.267,0.39c0.123,0.062,0.296,0.12,0.519,0.174
			c0.222,0.055,0.419,0.11,0.59,0.165s0.337,0.116,0.498,0.185s0.333,0.164,0.519,0.287
			C400.725,74.76,400.909,75.143,400.909,75.663z"/>
		<path d="M402.284,70.747c-0.144-0.144-0.216-0.314-0.216-0.513c0-0.198,0.072-0.369,0.216-0.513
			c0.144-0.144,0.315-0.215,0.513-0.215c0.199,0,0.37,0.072,0.514,0.215c0.144,0.144,0.216,0.315,0.216,0.513
			c0,0.199-0.072,0.37-0.216,0.513s-0.314,0.216-0.514,0.216C402.6,70.963,402.428,70.891,402.284,70.747z M403.361,77.294h-1.148
			v-5.459h1.148V77.294z"/>
		<path d="M410.073,71.835v4.762c0,0.964-0.262,1.688-0.785,2.17s-1.196,0.724-2.017,0.724s-1.563-0.257-2.227-0.77l0.543-0.872
			c0.534,0.403,1.073,0.605,1.617,0.605c0.543,0,0.975-0.14,1.293-0.421c0.318-0.28,0.477-0.729,0.477-1.344v-0.698
			c-0.17,0.322-0.415,0.578-0.733,0.77c-0.317,0.192-0.676,0.288-1.072,0.288c-0.726,0-1.32-0.253-1.786-0.76
			c-0.465-0.506-0.697-1.135-0.697-1.888c0-0.752,0.232-1.382,0.697-1.888c0.466-0.506,1.059-0.759,1.781-0.759
			c0.722,0,1.309,0.297,1.76,0.893v-0.811H410.073z M405.814,74.354c0,0.448,0.139,0.834,0.416,1.16
			c0.276,0.325,0.649,0.487,1.118,0.487c0.468,0,0.849-0.157,1.14-0.472c0.29-0.314,0.436-0.706,0.436-1.175
			s-0.147-0.866-0.441-1.19c-0.294-0.325-0.674-0.488-1.139-0.488c-0.466,0-0.837,0.168-1.113,0.503
			C405.953,73.515,405.814,73.906,405.814,74.354z"/>
		<path d="M412.885,74.339v2.956h-1.149v-5.459h1.149v0.996c0.186-0.335,0.439-0.599,0.765-0.791
			c0.325-0.191,0.676-0.287,1.052-0.287c0.615,0,1.113,0.188,1.493,0.564c0.38,0.376,0.569,0.92,0.569,1.631v3.346h-1.148v-2.997
			c0-1.006-0.418-1.508-1.252-1.508c-0.397,0-0.743,0.131-1.037,0.395C413.031,73.448,412.885,73.833,412.885,74.339z"/>
		<path d="M421.598,76.597c-0.514-0.52-0.77-1.204-0.77-2.053c0-0.848,0.263-1.525,0.789-2.032c0.527-0.506,1.155-0.759,1.884-0.759
			s1.315,0.308,1.76,0.923V69.68h1.149v7.615h-1.149v-0.821c-0.425,0.602-1.044,0.903-1.857,0.903
			C422.713,77.376,422.11,77.117,421.598,76.597z M421.977,74.59c0,0.523,0.168,0.949,0.504,1.278
			c0.334,0.328,0.729,0.492,1.18,0.492s0.834-0.166,1.148-0.498c0.315-0.332,0.473-0.758,0.473-1.277
			c0-0.52-0.157-0.955-0.473-1.304c-0.314-0.349-0.701-0.523-1.159-0.523s-0.852,0.175-1.18,0.523
			C422.141,73.631,421.977,74.067,421.977,74.59z"/>
		<path d="M431.891,74.791v-2.956h1.148v5.459h-1.148v-0.996c-0.186,0.335-0.44,0.599-0.766,0.791
			c-0.324,0.191-0.676,0.287-1.051,0.287c-0.616,0-1.114-0.188-1.494-0.564c-0.379-0.376-0.569-0.92-0.569-1.632v-3.345h1.149v2.997
			c0,1.006,0.418,1.508,1.252,1.508c0.396,0,0.742-0.131,1.037-0.395C431.742,75.682,431.891,75.297,431.891,74.791z"/>
		<path d="M440.438,71.753c0.732,0,1.358,0.253,1.879,0.759c0.52,0.506,0.779,1.18,0.779,2.021c0,0.842-0.258,1.526-0.774,2.053
			s-1.118,0.79-1.806,0.79s-1.306-0.301-1.854-0.903v2.812h-1.148v-7.45h1.148v0.955C439.114,72.098,439.706,71.753,440.438,71.753z
			 M438.643,74.575c0,0.52,0.156,0.946,0.472,1.278c0.314,0.332,0.698,0.498,1.149,0.498s0.845-0.164,1.18-0.492
			c0.336-0.329,0.504-0.754,0.504-1.278s-0.165-0.958-0.493-1.303c-0.329-0.346-0.722-0.519-1.181-0.519
			c-0.458,0-0.845,0.173-1.159,0.519C438.799,73.623,438.643,74.055,438.643,74.575z"/>
		<path d="M447.272,72.913c-0.567,0-0.995,0.185-1.282,0.554c-0.287,0.369-0.432,0.865-0.432,1.488v2.34h-1.149v-5.459h1.149v1.098
			c0.186-0.342,0.437-0.623,0.754-0.842c0.318-0.219,0.656-0.332,1.012-0.338l0.01,1.16
			C447.313,72.913,447.293,72.913,447.272,72.913z"/>
		<path d="M452.947,76.561c-0.547,0.544-1.231,0.816-2.053,0.816c-0.82,0-1.505-0.272-2.053-0.816
			c-0.547-0.544-0.82-1.209-0.82-1.996c0-0.787,0.273-1.452,0.82-1.996c0.548-0.544,1.232-0.816,2.053-0.816
			c0.821,0,1.506,0.272,2.053,0.816s0.82,1.209,0.82,1.996C453.768,75.352,453.494,76.017,452.947,76.561z M449.658,75.853
			c0.324,0.332,0.737,0.498,1.236,0.498c0.5,0,0.912-0.166,1.236-0.498c0.325-0.332,0.488-0.761,0.488-1.288
			c0-0.526-0.163-0.956-0.488-1.288c-0.324-0.332-0.736-0.498-1.236-0.498c-0.499,0-0.912,0.166-1.236,0.498
			c-0.325,0.332-0.487,0.761-0.487,1.288C449.171,75.092,449.333,75.521,449.658,75.853z"/>
		<path d="M455.492,76.597c-0.514-0.52-0.77-1.204-0.77-2.053c0-0.848,0.264-1.525,0.79-2.032s1.155-0.759,1.884-0.759
			s1.314,0.308,1.76,0.923V69.68h1.148v7.615h-1.148v-0.821c-0.425,0.602-1.044,0.903-1.857,0.903
			C456.607,77.376,456.006,77.117,455.492,76.597z M455.872,74.59c0,0.523,0.167,0.949,0.503,1.278
			c0.335,0.328,0.729,0.492,1.18,0.492s0.835-0.166,1.149-0.498c0.315-0.332,0.472-0.758,0.472-1.277
			c0-0.52-0.156-0.955-0.472-1.304c-0.314-0.349-0.701-0.523-1.159-0.523c-0.459,0-0.852,0.175-1.18,0.523
			C456.036,73.631,455.872,74.067,455.872,74.59z"/>
		<path d="M465.785,74.791v-2.956h1.149v5.459h-1.149v-0.996c-0.186,0.335-0.439,0.599-0.765,0.791s-0.676,0.287-1.052,0.287
			c-0.615,0-1.113-0.188-1.493-0.564c-0.38-0.376-0.569-0.92-0.569-1.632v-3.345h1.148v2.997c0,1.006,0.418,1.508,1.252,1.508
			c0.397,0,0.742-0.131,1.037-0.395C465.638,75.682,465.785,75.297,465.785,74.791z"/>
		<path d="M468.668,70.747c-0.143-0.144-0.215-0.314-0.215-0.513c0-0.198,0.072-0.369,0.215-0.513
			c0.145-0.144,0.315-0.215,0.514-0.215c0.199,0,0.369,0.072,0.514,0.215c0.143,0.144,0.215,0.315,0.215,0.513
			c0,0.199-0.072,0.37-0.215,0.513c-0.145,0.144-0.314,0.216-0.514,0.216C468.983,70.963,468.813,70.891,468.668,70.747z
			 M469.746,77.294h-1.149v-5.459h1.149V77.294z"/>
		<path d="M472.824,72.758v2.771c0,0.26,0.068,0.467,0.205,0.621c0.137,0.154,0.329,0.23,0.575,0.23s0.482-0.119,0.708-0.359
			l0.473,0.811c-0.404,0.363-0.851,0.544-1.34,0.544s-0.906-0.169-1.252-0.508c-0.346-0.339-0.518-0.795-0.518-1.37v-2.74h-0.688
			v-0.923h0.688v-1.714h1.148v1.714h1.438v0.923H472.824z"/>
	</g>
	<g>
		<path d="M129.375,76.196c0.417,0,0.776-0.07,1.078-0.21c0.301-0.14,0.616-0.364,0.944-0.672l0.78,0.8
			c-0.76,0.841-1.682,1.262-2.766,1.262c-1.084,0-1.984-0.349-2.699-1.047c-0.715-0.698-1.072-1.58-1.072-2.647
			s0.364-1.957,1.093-2.668s1.649-1.067,2.761-1.067s2.041,0.411,2.786,1.231l-0.77,0.841c-0.342-0.328-0.666-0.558-0.97-0.688
			c-0.305-0.13-0.662-0.195-1.073-0.195c-0.725,0-1.334,0.234-1.827,0.703c-0.493,0.469-0.739,1.067-0.739,1.796
			c0,0.729,0.245,1.338,0.734,1.827C128.124,75.952,128.704,76.196,129.375,76.196z"/>
		<path d="M136.353,72.913c-0.568,0-0.996,0.185-1.283,0.554c-0.287,0.369-0.431,0.865-0.431,1.488v2.34h-1.149v-5.459h1.149v1.098
			c0.185-0.342,0.437-0.623,0.754-0.842c0.318-0.219,0.655-0.332,1.011-0.338l0.01,1.16
			C136.394,72.913,136.373,72.913,136.353,72.913z"/>
		<path d="M137.635,70.747c-0.144-0.144-0.215-0.314-0.215-0.513c0-0.198,0.072-0.369,0.215-0.513
			c0.144-0.144,0.315-0.215,0.513-0.215c0.199,0,0.37,0.072,0.513,0.215c0.144,0.144,0.216,0.315,0.216,0.513
			c0,0.199-0.072,0.37-0.216,0.513s-0.314,0.216-0.513,0.216C137.95,70.963,137.779,70.891,137.635,70.747z M138.712,77.294h-1.149
			v-5.459h1.149V77.294z"/>
		<path d="M141.791,72.758v2.771c0,0.26,0.068,0.467,0.205,0.621c0.137,0.154,0.329,0.23,0.575,0.23s0.482-0.119,0.708-0.359
			l0.472,0.811c-0.404,0.363-0.85,0.544-1.339,0.544s-0.906-0.169-1.252-0.508c-0.346-0.339-0.518-0.795-0.518-1.37v-2.74h-0.688
			v-0.923h0.688v-1.714h1.149v1.714h1.437v0.923H141.791z"/>
		<path d="M149.744,75.067h-4.279c0.027,0.397,0.208,0.717,0.544,0.959c0.335,0.243,0.718,0.365,1.149,0.365
			c0.684,0,1.204-0.216,1.56-0.647l0.657,0.719c-0.588,0.609-1.354,0.913-2.299,0.913c-0.766,0-1.418-0.255-1.955-0.765
			c-0.537-0.509-0.806-1.193-0.806-2.052c0-0.858,0.273-1.541,0.821-2.047s1.192-0.759,1.935-0.759c0.742,0,1.374,0.224,1.894,0.672
			c0.52,0.448,0.78,1.066,0.78,1.853V75.067z M145.465,74.165h3.13c0-0.458-0.144-0.811-0.431-1.057
			c-0.287-0.246-0.641-0.37-1.062-0.37s-0.799,0.128-1.134,0.385C145.632,73.379,145.465,73.727,145.465,74.165z M148.061,71.137
			h-1.047l-1.252-0.985l1.211-0.503L148.061,71.137z"/>
		<path d="M153.869,72.913c-0.568,0-0.996,0.185-1.283,0.554c-0.287,0.369-0.431,0.865-0.431,1.488v2.34h-1.149v-5.459h1.149v1.098
			c0.185-0.342,0.437-0.623,0.754-0.842c0.318-0.219,0.655-0.332,1.011-0.338l0.01,1.16C153.91,72.913,153.89,72.913,153.869,72.913
			z"/>
		<path d="M160.16,75.067h-4.279c0.027,0.397,0.208,0.717,0.544,0.959c0.335,0.243,0.718,0.365,1.149,0.365
			c0.684,0,1.204-0.216,1.56-0.647l0.657,0.719c-0.588,0.609-1.354,0.913-2.299,0.913c-0.766,0-1.418-0.255-1.955-0.765
			c-0.537-0.509-0.806-1.193-0.806-2.052c0-0.858,0.273-1.541,0.821-2.047s1.192-0.759,1.935-0.759c0.742,0,1.374,0.224,1.894,0.672
			c0.52,0.448,0.78,1.066,0.78,1.853V75.067z M155.88,74.165h3.13c0-0.458-0.144-0.811-0.431-1.057
			c-0.287-0.246-0.641-0.37-1.062-0.37s-0.799,0.128-1.134,0.385C156.048,73.379,155.88,73.727,155.88,74.165z"/>
	</g>
	<g>
		<path d="M424.239,180.915h-1.211v-7.173h1.888l2.166,4.505l2.165-4.505h1.878v7.173h-1.211v-5.603l-2.504,4.977h-0.678
			l-2.493-4.977V180.915z"/>
		<path d="M437.375,180.915h-1.047v-0.729c-0.452,0.541-1.058,0.811-1.816,0.811c-0.568,0-1.039-0.161-1.412-0.482
			c-0.373-0.321-0.559-0.75-0.559-1.288s0.198-0.939,0.596-1.206c0.396-0.267,0.934-0.4,1.61-0.4h1.488v-0.206
			c0-0.725-0.403-1.088-1.211-1.088c-0.507,0-1.033,0.185-1.581,0.554l-0.513-0.718c0.663-0.527,1.417-0.79,2.258-0.79
			c0.644,0,1.168,0.163,1.575,0.487c0.407,0.325,0.611,0.836,0.611,1.534V180.915z M436.225,178.883v-0.462h-1.293
			c-0.828,0-1.241,0.26-1.241,0.78c0,0.267,0.103,0.471,0.308,0.611s0.49,0.21,0.857,0.21c0.365,0,0.686-0.103,0.959-0.308
			S436.225,179.232,436.225,178.883z"/>
		<path d="M440.33,176.379v2.771c0,0.26,0.068,0.467,0.205,0.621c0.137,0.154,0.328,0.23,0.574,0.23s0.482-0.119,0.709-0.359
			l0.472,0.811c-0.403,0.363-0.851,0.544-1.339,0.544c-0.49,0-0.906-0.169-1.252-0.508c-0.346-0.339-0.519-0.795-0.519-1.37v-2.74
			h-0.688v-0.923h0.688v-1.714h1.149v1.714h1.437v0.923H440.33z"/>
		<path d="M448.283,178.688h-4.279c0.027,0.397,0.209,0.717,0.544,0.959c0.335,0.243,0.718,0.365,1.149,0.365
			c0.684,0,1.203-0.216,1.56-0.647l0.657,0.719c-0.589,0.609-1.355,0.913-2.299,0.913c-0.767,0-1.418-0.255-1.955-0.765
			c-0.537-0.509-0.806-1.193-0.806-2.052c0-0.858,0.273-1.541,0.821-2.047c0.547-0.506,1.191-0.759,1.934-0.759
			s1.374,0.224,1.895,0.672c0.52,0.448,0.779,1.066,0.779,1.853V178.688z M444.004,177.785h3.13c0-0.458-0.144-0.811-0.431-1.057
			s-0.642-0.37-1.063-0.37s-0.799,0.128-1.134,0.385C444.172,177,444.004,177.347,444.004,177.785z"/>
		<path d="M452.408,176.533c-0.568,0-0.996,0.185-1.283,0.554c-0.287,0.369-0.431,0.865-0.431,1.488v2.34h-1.149v-5.459h1.149v1.098
			c0.185-0.342,0.437-0.623,0.755-0.842c0.318-0.219,0.654-0.332,1.01-0.338l0.011,1.16
			C452.449,176.533,452.429,176.533,452.408,176.533z"/>
		<path d="M453.69,174.368c-0.144-0.144-0.216-0.314-0.216-0.513c0-0.198,0.072-0.369,0.216-0.513
			c0.144-0.144,0.315-0.215,0.513-0.215c0.199,0,0.37,0.072,0.514,0.215c0.144,0.144,0.216,0.315,0.216,0.513
			c0,0.199-0.072,0.37-0.216,0.513s-0.314,0.216-0.514,0.216C454.006,174.583,453.834,174.511,453.69,174.368z M454.768,180.915
			h-1.148v-5.459h1.148V180.915z"/>
		<path d="M460.854,180.915h-1.047v-0.729c-0.451,0.541-1.057,0.811-1.816,0.811c-0.568,0-1.038-0.161-1.411-0.482
			c-0.373-0.321-0.56-0.75-0.56-1.288s0.199-0.939,0.596-1.206c0.396-0.267,0.934-0.4,1.611-0.4h1.488v-0.206
			c0-0.725-0.404-1.088-1.211-1.088c-0.507,0-1.033,0.185-1.581,0.554l-0.513-0.718c0.663-0.527,1.416-0.79,2.258-0.79
			c0.643,0,1.168,0.163,1.574,0.487c0.408,0.325,0.611,0.836,0.611,1.534V180.915z M459.704,178.883v-0.462h-1.293
			c-0.828,0-1.241,0.26-1.241,0.78c0,0.267,0.102,0.471,0.307,0.611s0.491,0.21,0.857,0.21c0.365,0,0.686-0.103,0.959-0.308
			S459.704,179.232,459.704,178.883z"/>
		<path d="M466.271,178.411v-2.956h1.15v5.459h-1.15v-0.996c-0.185,0.335-0.439,0.599-0.764,0.791
			c-0.326,0.191-0.676,0.287-1.053,0.287c-0.615,0-1.113-0.188-1.492-0.564c-0.381-0.376-0.57-0.92-0.57-1.632v-3.345h1.149v2.997
			c0,1.006,0.417,1.508,1.252,1.508c0.397,0,0.742-0.131,1.036-0.395C466.125,179.302,466.271,178.917,466.271,178.411z"/>
		<path d="M469.956,175.456l1.17,1.796l1.211-1.796h1.364l-1.908,2.668l1.99,2.792h-1.416l-1.303-1.816l-1.272,1.816h-1.345
			l1.939-2.781l-1.837-2.678H469.956z"/>
	</g>
	<g>
		<path d="M76.028,174.871v1.97h3.181v1.119h-3.181v2.956h-1.211v-7.173H79.6l-0.01,1.129H76.028z"/>
		<path d="M80.923,174.368c-0.144-0.144-0.215-0.314-0.215-0.513c0-0.198,0.072-0.369,0.215-0.513
			c0.144-0.144,0.315-0.215,0.513-0.215c0.199,0,0.37,0.072,0.513,0.215c0.144,0.144,0.216,0.315,0.216,0.513
			c0,0.199-0.072,0.37-0.216,0.513s-0.314,0.216-0.513,0.216C81.238,174.583,81.067,174.511,80.923,174.368z M82,180.915h-1.149
			v-5.459H82V180.915z"/>
		<path d="M88.086,180.915h-1.047v-0.729c-0.452,0.541-1.057,0.811-1.816,0.811c-0.568,0-1.038-0.161-1.411-0.482
			c-0.373-0.321-0.559-0.75-0.559-1.288s0.198-0.939,0.595-1.206c0.396-0.267,0.934-0.4,1.611-0.4h1.488v-0.206
			c0-0.725-0.404-1.088-1.211-1.088c-0.506,0-1.033,0.185-1.581,0.554l-0.513-0.718c0.664-0.527,1.417-0.79,2.258-0.79
			c0.643,0,1.168,0.163,1.575,0.487c0.407,0.325,0.611,0.836,0.611,1.534V180.915z M86.937,178.883v-0.462h-1.293
			c-0.828,0-1.242,0.26-1.242,0.78c0,0.267,0.103,0.471,0.308,0.611s0.491,0.21,0.857,0.21c0.366,0,0.686-0.103,0.959-0.308
			S86.937,179.232,86.937,178.883z"/>
		<path d="M92.611,175.374c0.732,0,1.358,0.253,1.878,0.759s0.78,1.18,0.78,2.021c0,0.842-0.258,1.526-0.775,2.053
			s-1.119,0.79-1.806,0.79s-1.305-0.301-1.853-0.903v0.821h-1.149V173.3h1.149v3.11C91.288,175.719,91.879,175.374,92.611,175.374z
			 M90.815,178.195c0,0.52,0.157,0.946,0.472,1.278c0.314,0.332,0.698,0.498,1.149,0.498s0.845-0.164,1.18-0.492
			c0.335-0.329,0.503-0.754,0.503-1.278s-0.165-0.958-0.493-1.303c-0.329-0.346-0.722-0.519-1.18-0.519
			c-0.458,0-0.845,0.173-1.16,0.519C90.973,177.243,90.815,177.676,90.815,178.195z"/>
		<path d="M96.654,174.368c-0.144-0.144-0.215-0.314-0.215-0.513c0-0.198,0.072-0.369,0.215-0.513
			c0.144-0.144,0.315-0.215,0.513-0.215c0.199,0,0.37,0.072,0.513,0.215c0.144,0.144,0.216,0.315,0.216,0.513
			c0,0.199-0.072,0.37-0.216,0.513s-0.314,0.216-0.513,0.216C96.969,174.583,96.798,174.511,96.654,174.368z M97.732,180.915h-1.149
			v-5.459h1.149V180.915z"/>
		<path d="M100.543,180.915h-1.149V173.3h1.149V180.915z"/>
		<path d="M102.277,174.368c-0.144-0.144-0.215-0.314-0.215-0.513c0-0.198,0.072-0.369,0.215-0.513
			c0.144-0.144,0.315-0.215,0.513-0.215c0.199,0,0.37,0.072,0.513,0.215c0.144,0.144,0.216,0.315,0.216,0.513
			c0,0.199-0.072,0.37-0.216,0.513s-0.314,0.216-0.513,0.216C102.592,174.583,102.421,174.511,102.277,174.368z M103.355,180.915
			h-1.149v-5.459h1.149V180.915z"/>
		<path d="M106.434,176.379v2.771c0,0.26,0.068,0.467,0.205,0.621c0.137,0.154,0.329,0.23,0.575,0.23s0.482-0.119,0.708-0.359
			l0.472,0.811c-0.404,0.363-0.85,0.544-1.339,0.544s-0.906-0.169-1.252-0.508c-0.346-0.339-0.518-0.795-0.518-1.37v-2.74h-0.688
			v-0.923h0.688v-1.714h1.149v1.714h1.437v0.923H106.434z"/>
		<path d="M114.387,178.688h-4.279c0.027,0.397,0.208,0.717,0.544,0.959c0.335,0.243,0.718,0.365,1.149,0.365
			c0.684,0,1.204-0.216,1.56-0.647l0.657,0.719c-0.588,0.609-1.354,0.913-2.299,0.913c-0.766,0-1.418-0.255-1.955-0.765
			c-0.537-0.509-0.806-1.193-0.806-2.052c0-0.858,0.273-1.541,0.821-2.047s1.192-0.759,1.935-0.759c0.742,0,1.374,0.224,1.894,0.672
			c0.52,0.448,0.78,1.066,0.78,1.853V178.688z M110.107,177.785h3.13c0-0.458-0.144-0.811-0.431-1.057
			c-0.287-0.246-0.641-0.37-1.062-0.37s-0.799,0.128-1.134,0.385C110.275,177,110.107,177.347,110.107,177.785z M112.334,174.737
			h-1.046l1.087-1.488l1.211,0.503L112.334,174.737z"/>
	</g>
	<g>
		<path d="M123.512,292.156v1.971h3.181v1.119h-3.181v2.955h-1.211v-7.172h4.782l-0.01,1.127H123.512z"/>
		<path d="M128.407,291.654c-0.144-0.145-0.215-0.314-0.215-0.514c0-0.197,0.072-0.369,0.215-0.512
			c0.144-0.145,0.315-0.217,0.513-0.217c0.199,0,0.37,0.072,0.513,0.217c0.144,0.143,0.216,0.314,0.216,0.512
			c0,0.199-0.072,0.369-0.216,0.514s-0.314,0.215-0.513,0.215C128.722,291.869,128.551,291.799,128.407,291.654z M129.484,298.201
			h-1.149v-5.459h1.149V298.201z"/>
		<path d="M135.57,298.201h-1.047v-0.729c-0.452,0.541-1.057,0.811-1.816,0.811c-0.568,0-1.038-0.16-1.411-0.482
			c-0.373-0.32-0.559-0.75-0.559-1.287s0.198-0.939,0.595-1.205c0.396-0.268,0.934-0.4,1.611-0.4h1.488v-0.205
			c0-0.727-0.404-1.088-1.211-1.088c-0.506,0-1.033,0.184-1.581,0.553l-0.513-0.717c0.664-0.527,1.417-0.791,2.258-0.791
			c0.643,0,1.168,0.162,1.575,0.488c0.407,0.324,0.611,0.836,0.611,1.533V298.201z M134.42,296.17v-0.463h-1.293
			c-0.828,0-1.242,0.262-1.242,0.781c0,0.266,0.103,0.471,0.308,0.609c0.205,0.141,0.491,0.211,0.857,0.211
			c0.366,0,0.686-0.102,0.959-0.307C134.283,296.795,134.42,296.52,134.42,296.17z"/>
		<path d="M140.095,292.66c0.732,0,1.358,0.254,1.878,0.76s0.78,1.18,0.78,2.021s-0.258,1.525-0.775,2.053
			c-0.517,0.525-1.119,0.789-1.806,0.789s-1.305-0.301-1.853-0.902v0.82h-1.149v-7.613h1.149v3.109
			C138.771,293.006,139.363,292.66,140.095,292.66z M138.299,295.482c0,0.52,0.157,0.945,0.472,1.277
			c0.314,0.332,0.698,0.498,1.149,0.498s0.845-0.164,1.18-0.492c0.335-0.328,0.503-0.756,0.503-1.277
			c0-0.523-0.165-0.959-0.493-1.305c-0.329-0.346-0.722-0.518-1.18-0.518c-0.458,0-0.845,0.172-1.16,0.518
			C138.457,294.529,138.299,294.963,138.299,295.482z"/>
		<path d="M144.138,291.654c-0.144-0.145-0.215-0.314-0.215-0.514c0-0.197,0.072-0.369,0.215-0.512
			c0.144-0.145,0.315-0.217,0.513-0.217c0.199,0,0.37,0.072,0.513,0.217c0.144,0.143,0.216,0.314,0.216,0.512
			c0,0.199-0.072,0.369-0.216,0.514s-0.314,0.215-0.513,0.215C144.453,291.869,144.282,291.799,144.138,291.654z M145.216,298.201
			h-1.149v-5.459h1.149V298.201z"/>
		<path d="M148.027,298.201h-1.149v-7.613h1.149V298.201z"/>
		<path d="M149.761,291.654c-0.144-0.145-0.215-0.314-0.215-0.514c0-0.197,0.072-0.369,0.215-0.512
			c0.144-0.145,0.315-0.217,0.513-0.217c0.199,0,0.37,0.072,0.513,0.217c0.144,0.143,0.216,0.314,0.216,0.512
			c0,0.199-0.072,0.369-0.216,0.514s-0.314,0.215-0.513,0.215C150.076,291.869,149.905,291.799,149.761,291.654z M150.839,298.201
			h-1.149v-5.459h1.149V298.201z"/>
		<path d="M153.917,293.666v2.771c0,0.26,0.068,0.467,0.205,0.619c0.137,0.154,0.329,0.232,0.575,0.232s0.482-0.121,0.708-0.359
			l0.472,0.811c-0.404,0.363-0.85,0.543-1.339,0.543s-0.906-0.168-1.252-0.508c-0.346-0.338-0.518-0.795-0.518-1.369v-2.74h-0.688
			v-0.924h0.688v-1.713h1.149v1.713h1.437v0.924H153.917z"/>
		<path d="M161.871,295.975h-4.279c0.027,0.396,0.208,0.717,0.544,0.959c0.335,0.244,0.718,0.365,1.149,0.365
			c0.684,0,1.204-0.215,1.56-0.646l0.657,0.719c-0.588,0.607-1.354,0.912-2.299,0.912c-0.766,0-1.418-0.254-1.955-0.764
			c-0.537-0.51-0.806-1.193-0.806-2.053s0.273-1.541,0.821-2.047s1.192-0.76,1.935-0.76c0.742,0,1.374,0.225,1.894,0.672
			c0.52,0.449,0.78,1.066,0.78,1.854V295.975z M157.591,295.072h3.13c0-0.459-0.144-0.811-0.431-1.057
			c-0.287-0.248-0.641-0.371-1.062-0.371s-0.799,0.129-1.134,0.385C157.759,294.287,157.591,294.635,157.591,295.072z
			 M159.818,292.023h-1.046l1.087-1.488l1.211,0.504L159.818,292.023z"/>
	</g>
	<g>
		<path d="M378.914,292.156v1.971h3.182v1.119h-3.182v2.955h-1.211v-7.172h4.783l-0.011,1.127H378.914z"/>
		<path d="M383.809,291.654c-0.143-0.145-0.215-0.314-0.215-0.514c0-0.197,0.072-0.369,0.215-0.512
			c0.145-0.145,0.315-0.217,0.514-0.217c0.199,0,0.369,0.072,0.514,0.217c0.143,0.143,0.215,0.314,0.215,0.512
			c0,0.199-0.072,0.369-0.215,0.514c-0.145,0.145-0.314,0.215-0.514,0.215C384.124,291.869,383.953,291.799,383.809,291.654z
			 M384.887,298.201h-1.149v-5.459h1.149V298.201z"/>
		<path d="M390.973,298.201h-1.047v-0.729c-0.452,0.541-1.058,0.811-1.816,0.811c-0.568,0-1.039-0.16-1.412-0.482
			c-0.373-0.32-0.559-0.75-0.559-1.287s0.198-0.939,0.596-1.205c0.396-0.268,0.934-0.4,1.61-0.4h1.488v-0.205
			c0-0.727-0.403-1.088-1.211-1.088c-0.507,0-1.033,0.184-1.581,0.553l-0.513-0.717c0.663-0.527,1.417-0.791,2.258-0.791
			c0.644,0,1.168,0.162,1.575,0.488c0.407,0.324,0.611,0.836,0.611,1.533V298.201z M389.822,296.17v-0.463h-1.293
			c-0.828,0-1.241,0.262-1.241,0.781c0,0.266,0.103,0.471,0.308,0.609c0.205,0.141,0.49,0.211,0.857,0.211
			c0.365,0,0.686-0.102,0.959-0.307C389.686,296.795,389.822,296.52,389.822,296.17z"/>
		<path d="M395.498,292.66c0.731,0,1.357,0.254,1.877,0.76c0.521,0.506,0.781,1.18,0.781,2.021s-0.259,1.525-0.775,2.053
			c-0.517,0.525-1.119,0.789-1.807,0.789s-1.305-0.301-1.852-0.902v0.82h-1.15v-7.613h1.15v3.109
			C394.174,293.006,394.766,292.66,395.498,292.66z M393.701,295.482c0,0.52,0.158,0.945,0.473,1.277s0.697,0.498,1.149,0.498
			s0.845-0.164,1.181-0.492c0.334-0.328,0.502-0.756,0.502-1.277c0-0.523-0.164-0.959-0.492-1.305s-0.723-0.518-1.18-0.518
			c-0.459,0-0.846,0.172-1.16,0.518S393.701,294.963,393.701,295.482z"/>
		<path d="M399.541,291.654c-0.145-0.145-0.216-0.314-0.216-0.514c0-0.197,0.071-0.369,0.216-0.512
			c0.144-0.145,0.314-0.217,0.513-0.217s0.37,0.072,0.513,0.217c0.145,0.143,0.217,0.314,0.217,0.512
			c0,0.199-0.072,0.369-0.217,0.514c-0.143,0.145-0.314,0.215-0.513,0.215S399.685,291.799,399.541,291.654z M400.618,298.201
			h-1.149v-5.459h1.149V298.201z"/>
		<path d="M403.43,298.201h-1.149v-7.613h1.149V298.201z"/>
		<path d="M405.164,291.654c-0.145-0.145-0.216-0.314-0.216-0.514c0-0.197,0.071-0.369,0.216-0.512
			c0.144-0.145,0.314-0.217,0.513-0.217s0.37,0.072,0.513,0.217c0.145,0.143,0.217,0.314,0.217,0.512
			c0,0.199-0.072,0.369-0.217,0.514c-0.143,0.145-0.314,0.215-0.513,0.215S405.308,291.799,405.164,291.654z M406.241,298.201
			h-1.149v-5.459h1.149V298.201z"/>
		<path d="M409.32,293.666v2.771c0,0.26,0.068,0.467,0.205,0.619c0.137,0.154,0.328,0.232,0.574,0.232s0.482-0.121,0.708-0.359
			l0.472,0.811c-0.403,0.363-0.85,0.543-1.339,0.543s-0.906-0.168-1.252-0.508c-0.346-0.338-0.519-0.795-0.519-1.369v-2.74h-0.688
			v-0.924h0.688v-1.713h1.15v1.713h1.436v0.924H409.32z"/>
		<path d="M417.273,295.975h-4.279c0.027,0.396,0.208,0.717,0.543,0.959c0.336,0.244,0.719,0.365,1.15,0.365
			c0.684,0,1.203-0.215,1.559-0.646l0.657,0.719c-0.589,0.607-1.354,0.912-2.299,0.912c-0.767,0-1.418-0.254-1.954-0.764
			c-0.537-0.51-0.807-1.193-0.807-2.053s0.273-1.541,0.821-2.047s1.192-0.76,1.935-0.76s1.373,0.225,1.894,0.672
			c0.52,0.449,0.78,1.066,0.78,1.854V295.975z M412.994,295.072h3.129c0-0.459-0.143-0.811-0.431-1.057
			c-0.287-0.248-0.642-0.371-1.062-0.371c-0.422,0-0.799,0.129-1.135,0.385C413.161,294.287,412.994,294.635,412.994,295.072z
			 M415.221,292.023h-1.047l1.088-1.488l1.211,0.504L415.221,292.023z"/>
	</g>
	<g>
		<line fill="none" stroke="#000000" stroke-miterlimit="10" x1="270.976" y1="181.916" x2="270.976" y2="74.399"/>
		<circle cx="270.976" cy="73.243" r="2.536"/>
	</g>
	<line fill="none" stroke="#000000" stroke-miterlimit="10" x1="270.976" y1="181.916" x2="327.113" y2="125.776"/>
	<line fill="none" stroke="#000000" stroke-miterlimit="10" x1="270.976" y1="181.916" x2="366.389" y2="181.916"/>
	<circle cx="367.676" cy="181.916" r="2.536"/>
	<g>
		<line fill="none" stroke="#000000" stroke-miterlimit="10" x1="270.976" y1="181.916" x2="347" y2="257.94"/>
		<circle cx="347.818" cy="258.757" r="2.536"/>
	</g>
	<line fill="none" stroke="#000000" stroke-miterlimit="10" x1="270.976" y1="181.916" x2="270.976" y2="265.059"/>
	<circle cx="270.974" cy="264.068" r="2.535"/>
	<line fill="none" stroke="#000000" stroke-miterlimit="10" x1="270.976" y1="181.916" x2="185.468" y2="267.422"/>
	<ellipse transform="matrix(-0.7071 -0.7072 0.7072 -0.7071 126.004 588.2767)" cx="184.85" cy="268.04" rx="2.536" ry="2.424"/>
	<line fill="none" stroke="#000000" stroke-miterlimit="10" x1="270.976" y1="181.916" x2="215.339" y2="181.916"/>
	<circle cx="215.34" cy="181.915" r="2.536"/>
	<line fill="none" stroke="#000000" stroke-miterlimit="10" x1="270.976" y1="181.916" x2="222.574" y2="133.515"/>
	<circle cx="222.168" cy="133.106" r="2.535"/>
	<circle cx="328.291" cy="124.341" r="2.536"/>
</g>
</svg>
